<?xml version="1.0" encoding="UTF-8" standalone="no"?>
<!DOCTYPE svg PUBLIC "-//W3C//DTD SVG 1.1//EN"
 "http://www.w3.org/Graphics/SVG/1.1/DTD/svg11.dtd">
<!-- Generated by graphviz version 2.42.3 (20191010.1750)
 -->
<!-- Title: %3 Pages: 1 -->
<svg width="1015pt" height="233pt"
 viewBox="0.00 0.00 1015.35 232.91" xmlns="http://www.w3.org/2000/svg" xmlns:xlink="http://www.w3.org/1999/xlink">
<g id="graph0" class="graph" transform="scale(1 1) rotate(0) translate(4 228.91)">
<title>%3</title>
<polygon fill="white" stroke="transparent" points="-4,4 -4,-228.91 1011.35,-228.91 1011.35,4 -4,4"/>
<g id="clust1" class="cluster">
<title>cluster4,000</title>
<path fill="none" stroke="black" d="M270.95,-8C270.95,-8 430.95,-8 430.95,-8 436.95,-8 442.95,-14 442.95,-20 442.95,-20 442.95,-109.95 442.95,-109.95 442.95,-115.95 436.95,-121.95 430.95,-121.95 430.95,-121.95 270.95,-121.95 270.95,-121.95 264.95,-121.95 258.95,-115.95 258.95,-109.95 258.95,-109.95 258.95,-20 258.95,-20 258.95,-14 264.95,-8 270.95,-8"/>
<text text-anchor="middle" x="418.95" y="-15.8" font-family="Times,serif" font-size="14.00">4,000</text>
</g>
<!-- alcohol[T.True] -->
<g id="node1" class="node">
<title>alcohol[T.True]</title>
<ellipse fill="none" stroke="black" cx="74.95" cy="-187.43" rx="74.91" ry="37.45"/>
<text text-anchor="middle" x="74.95" y="-198.73" font-family="Times,serif" font-size="14.00">alcohol[T.True]</text>
<text text-anchor="middle" x="74.95" y="-183.73" font-family="Times,serif" font-size="14.00">~</text>
<text text-anchor="middle" x="74.95" y="-168.73" font-family="Times,serif" font-size="14.00">Normal</text>
</g>
<!-- y -->
<g id="node7" class="node">
<title>y</title>
<ellipse fill="lightgrey" stroke="black" cx="350.95" cy="-76.48" rx="84.29" ry="37.45"/>
<text text-anchor="middle" x="350.95" y="-87.78" font-family="Times,serif" font-size="14.00">y</text>
<text text-anchor="middle" x="350.95" y="-72.78" font-family="Times,serif" font-size="14.00">~</text>
<text text-anchor="middle" x="350.95" y="-57.78" font-family="Times,serif" font-size="14.00">NegativeBinomial</text>
</g>
<!-- alcohol[T.True]&#45;&gt;y -->
<g id="edge1" class="edge">
<title>alcohol[T.True]&#45;&gt;y</title>
<path fill="none" stroke="black" d="M130.37,-161.91C139.87,-157.84 149.67,-153.72 158.95,-149.95 197.75,-134.22 241.38,-117.66 277.23,-104.35"/>
<polygon fill="black" stroke="black" points="278.49,-107.62 286.65,-100.86 276.06,-101.05 278.49,-107.62"/>
</g>
<!-- alpha -->
<g id="node2" class="node">
<title>alpha</title>
<ellipse fill="none" stroke="black" cx="226.95" cy="-187.43" rx="59.29" ry="37.45"/>
<text text-anchor="middle" x="226.95" y="-198.73" font-family="Times,serif" font-size="14.00">alpha</text>
<text text-anchor="middle" x="226.95" y="-183.73" font-family="Times,serif" font-size="14.00">~</text>
<text text-anchor="middle" x="226.95" y="-168.73" font-family="Times,serif" font-size="14.00">HalfCauchy</text>
</g>
<!-- alpha&#45;&gt;y -->
<g id="edge2" class="edge">
<title>alpha&#45;&gt;y</title>
<path fill="none" stroke="black" d="M261.17,-156.37C275.08,-144.14 291.36,-129.84 306.2,-116.8"/>
<polygon fill="black" stroke="black" points="308.61,-119.34 313.81,-110.11 303.99,-114.08 308.61,-119.34"/>
</g>
<!-- Intercept -->
<g id="node3" class="node">
<title>Intercept</title>
<ellipse fill="none" stroke="black" cx="350.95" cy="-187.43" rx="46.84" ry="37.45"/>
<text text-anchor="middle" x="350.95" y="-198.73" font-family="Times,serif" font-size="14.00">Intercept</text>
<text text-anchor="middle" x="350.95" y="-183.73" font-family="Times,serif" font-size="14.00">~</text>
<text text-anchor="middle" x="350.95" y="-168.73" font-family="Times,serif" font-size="14.00">Flat</text>
</g>
<!-- Intercept&#45;&gt;y -->
<g id="edge3" class="edge">
<title>Intercept&#45;&gt;y</title>
<path fill="none" stroke="black" d="M350.95,-149.85C350.95,-141.67 350.95,-132.89 350.95,-124.37"/>
<polygon fill="black" stroke="black" points="354.45,-124.15 350.95,-114.15 347.45,-124.15 354.45,-124.15"/>
</g>
<!-- nomeds[T.True] -->
<g id="node4" class="node">
<title>nomeds[T.True]</title>
<ellipse fill="none" stroke="black" cx="491.95" cy="-187.43" rx="76.24" ry="37.45"/>
<text text-anchor="middle" x="491.95" y="-198.73" font-family="Times,serif" font-size="14.00">nomeds[T.True]</text>
<text text-anchor="middle" x="491.95" y="-183.73" font-family="Times,serif" font-size="14.00">~</text>
<text text-anchor="middle" x="491.95" y="-168.73" font-family="Times,serif" font-size="14.00">Normal</text>
</g>
<!-- nomeds[T.True]&#45;&gt;y -->
<g id="edge4" class="edge">
<title>nomeds[T.True]&#45;&gt;y</title>
<path fill="none" stroke="black" d="M451.93,-155.5C435.83,-143.06 417.12,-128.6 400.2,-115.53"/>
<polygon fill="black" stroke="black" points="402.12,-112.59 392.06,-109.24 397.83,-118.13 402.12,-112.59"/>
</g>
<!-- alcohol[T.True]&amp;nomeds[T.True] -->
<g id="node5" class="node">
<title>alcohol[T.True]&amp;nomeds[T.True]</title>
<ellipse fill="none" stroke="black" cx="727.95" cy="-187.43" rx="142.26" ry="37.45"/>
<text text-anchor="middle" x="727.95" y="-198.73" font-family="Times,serif" font-size="14.00">alcohol[T.True]:nomeds[T.True]</text>
<text text-anchor="middle" x="727.95" y="-183.73" font-family="Times,serif" font-size="14.00">~</text>
<text text-anchor="middle" x="727.95" y="-168.73" font-family="Times,serif" font-size="14.00">Normal</text>
</g>
<!-- alcohol[T.True]&amp;nomeds[T.True]&#45;&gt;y -->
<g id="edge5" class="edge">
<title>alcohol[T.True]&amp;nomeds[T.True]&#45;&gt;y</title>
<path fill="none" stroke="black" d="M633.79,-159.22C571.09,-141.1 489.63,-117.55 430.24,-100.39"/>
<polygon fill="black" stroke="black" points="431.11,-97 420.53,-97.59 429.17,-103.72 431.11,-97"/>
</g>
<!-- mu -->
<g id="node6" class="node">
<title>mu</title>
<ellipse fill="none" stroke="black" cx="947.95" cy="-187.43" rx="59.29" ry="37.45"/>
<text text-anchor="middle" x="947.95" y="-198.73" font-family="Times,serif" font-size="14.00">mu</text>
<text text-anchor="middle" x="947.95" y="-183.73" font-family="Times,serif" font-size="14.00">~</text>
<text text-anchor="middle" x="947.95" y="-168.73" font-family="Times,serif" font-size="14.00">HalfCauchy</text>
</g>
</g>
</svg>
