<?xml version="1.0" encoding="UTF-8" standalone="no"?>
<!DOCTYPE svg PUBLIC "-//W3C//DTD SVG 1.1//EN"
 "http://www.w3.org/Graphics/SVG/1.1/DTD/svg11.dtd">
<!-- Generated by graphviz version 2.42.3 (20191010.1750)
 -->
<!-- Title: %3 Pages: 1 -->
<svg width="416pt" height="391pt"
 viewBox="0.00 0.00 415.92 390.86" xmlns="http://www.w3.org/2000/svg" xmlns:xlink="http://www.w3.org/1999/xlink">
<g id="graph0" class="graph" transform="scale(1 1) rotate(0) translate(4 386.86)">
<title>%3</title>
<polygon fill="white" stroke="transparent" points="-4,4 -4,-386.86 411.92,-386.86 411.92,4 -4,4"/>
<g id="clust1" class="cluster">
<title>cluster85</title>
<path fill="none" stroke="black" d="M113.96,-165.95C113.96,-165.95 290.96,-165.95 290.96,-165.95 296.96,-165.95 302.96,-171.95 302.96,-177.95 302.96,-177.95 302.96,-267.91 302.96,-267.91 302.96,-273.91 296.96,-279.91 290.96,-279.91 290.96,-279.91 113.96,-279.91 113.96,-279.91 107.96,-279.91 101.96,-273.91 101.96,-267.91 101.96,-267.91 101.96,-177.95 101.96,-177.95 101.96,-171.95 107.96,-165.95 113.96,-165.95"/>
<text text-anchor="middle" x="287.46" y="-173.75" font-family="Times,serif" font-size="14.00">85</text>
</g>
<g id="clust2" class="cluster">
<title>cluster100</title>
<path fill="none" stroke="black" d="M101.96,-44C101.96,-44 201.96,-44 201.96,-44 207.96,-44 213.96,-50 213.96,-56 213.96,-56 213.96,-145.95 213.96,-145.95 213.96,-151.95 207.96,-157.95 201.96,-157.95 201.96,-157.95 101.96,-157.95 101.96,-157.95 95.96,-157.95 89.96,-151.95 89.96,-145.95 89.96,-145.95 89.96,-56 89.96,-56 89.96,-50 95.96,-44 101.96,-44"/>
<text text-anchor="middle" x="194.96" y="-51.8" font-family="Times,serif" font-size="14.00">100</text>
</g>
<!-- ϵ -->
<g id="node1" class="node">
<title>ϵ</title>
<ellipse fill="none" stroke="black" cx="45.96" cy="-234.43" rx="45.92" ry="37.45"/>
<text text-anchor="middle" x="45.96" y="-245.73" font-family="Times,serif" font-size="14.00">ϵ</text>
<text text-anchor="middle" x="45.96" y="-230.73" font-family="Times,serif" font-size="14.00">~</text>
<text text-anchor="middle" x="45.96" y="-215.73" font-family="Times,serif" font-size="14.00">Uniform</text>
</g>
<!-- radon_like -->
<g id="node8" class="node">
<title>radon_like</title>
<ellipse fill="lightgrey" stroke="black" cx="151.96" cy="-112.48" rx="53.98" ry="37.45"/>
<text text-anchor="middle" x="151.96" y="-123.78" font-family="Times,serif" font-size="14.00">radon_like</text>
<text text-anchor="middle" x="151.96" y="-108.78" font-family="Times,serif" font-size="14.00">~</text>
<text text-anchor="middle" x="151.96" y="-93.78" font-family="Times,serif" font-size="14.00">Normal</text>
</g>
<!-- ϵ&#45;&gt;radon_like -->
<g id="edge5" class="edge">
<title>ϵ&#45;&gt;radon_like</title>
<path fill="none" stroke="black" d="M68.88,-201.78C77.63,-190.21 87.92,-177.21 97.96,-165.95 102.58,-160.77 107.6,-155.49 112.67,-150.36"/>
<polygon fill="black" stroke="black" points="115.45,-152.53 120.07,-142.99 110.51,-147.56 115.45,-152.53"/>
</g>
<!-- μ_β -->
<g id="node2" class="node">
<title>μ_β</title>
<ellipse fill="none" stroke="black" cx="43.96" cy="-345.38" rx="41.94" ry="37.45"/>
<text text-anchor="middle" x="43.96" y="-356.68" font-family="Times,serif" font-size="14.00">μ_β</text>
<text text-anchor="middle" x="43.96" y="-341.68" font-family="Times,serif" font-size="14.00">~</text>
<text text-anchor="middle" x="43.96" y="-326.68" font-family="Times,serif" font-size="14.00">Normal</text>
</g>
<!-- β -->
<g id="node6" class="node">
<title>β</title>
<ellipse fill="none" stroke="black" cx="151.96" cy="-234.43" rx="41.94" ry="37.45"/>
<text text-anchor="middle" x="151.96" y="-245.73" font-family="Times,serif" font-size="14.00">β</text>
<text text-anchor="middle" x="151.96" y="-230.73" font-family="Times,serif" font-size="14.00">~</text>
<text text-anchor="middle" x="151.96" y="-215.73" font-family="Times,serif" font-size="14.00">Normal</text>
</g>
<!-- μ_β&#45;&gt;β -->
<g id="edge3" class="edge">
<title>μ_β&#45;&gt;β</title>
<path fill="none" stroke="black" d="M71.21,-316.89C85.28,-302.7 102.6,-285.23 117.58,-270.12"/>
<polygon fill="black" stroke="black" points="120.16,-272.48 124.72,-262.91 115.19,-267.55 120.16,-272.48"/>
</g>
<!-- μ_α -->
<g id="node3" class="node">
<title>μ_α</title>
<ellipse fill="none" stroke="black" cx="255.96" cy="-345.38" rx="41.94" ry="37.45"/>
<text text-anchor="middle" x="255.96" y="-356.68" font-family="Times,serif" font-size="14.00">μ_α</text>
<text text-anchor="middle" x="255.96" y="-341.68" font-family="Times,serif" font-size="14.00">~</text>
<text text-anchor="middle" x="255.96" y="-326.68" font-family="Times,serif" font-size="14.00">Normal</text>
</g>
<!-- α -->
<g id="node7" class="node">
<title>α</title>
<ellipse fill="none" stroke="black" cx="252.96" cy="-234.43" rx="41.94" ry="37.45"/>
<text text-anchor="middle" x="252.96" y="-245.73" font-family="Times,serif" font-size="14.00">α</text>
<text text-anchor="middle" x="252.96" y="-230.73" font-family="Times,serif" font-size="14.00">~</text>
<text text-anchor="middle" x="252.96" y="-215.73" font-family="Times,serif" font-size="14.00">Normal</text>
</g>
<!-- μ_α&#45;&gt;α -->
<g id="edge1" class="edge">
<title>μ_α&#45;&gt;α</title>
<path fill="none" stroke="black" d="M254.95,-307.8C254.73,-299.63 254.49,-290.85 254.25,-282.32"/>
<polygon fill="black" stroke="black" points="257.75,-282 253.97,-272.1 250.75,-282.19 257.75,-282"/>
</g>
<!-- σ_α -->
<g id="node4" class="node">
<title>σ_α</title>
<ellipse fill="none" stroke="black" cx="361.96" cy="-345.38" rx="45.92" ry="37.45"/>
<text text-anchor="middle" x="361.96" y="-356.68" font-family="Times,serif" font-size="14.00">σ_α</text>
<text text-anchor="middle" x="361.96" y="-341.68" font-family="Times,serif" font-size="14.00">~</text>
<text text-anchor="middle" x="361.96" y="-326.68" font-family="Times,serif" font-size="14.00">Uniform</text>
</g>
<!-- σ_α&#45;&gt;α -->
<g id="edge2" class="edge">
<title>σ_α&#45;&gt;α</title>
<path fill="none" stroke="black" d="M333.32,-315.76C319.47,-301.91 302.7,-285.15 288.08,-270.53"/>
<polygon fill="black" stroke="black" points="290.2,-267.71 280.66,-263.11 285.25,-272.66 290.2,-267.71"/>
</g>
<!-- σ_β -->
<g id="node5" class="node">
<title>σ_β</title>
<ellipse fill="none" stroke="black" cx="149.96" cy="-345.38" rx="45.92" ry="37.45"/>
<text text-anchor="middle" x="149.96" y="-356.68" font-family="Times,serif" font-size="14.00">σ_β</text>
<text text-anchor="middle" x="149.96" y="-341.68" font-family="Times,serif" font-size="14.00">~</text>
<text text-anchor="middle" x="149.96" y="-326.68" font-family="Times,serif" font-size="14.00">Uniform</text>
</g>
<!-- σ_β&#45;&gt;β -->
<g id="edge4" class="edge">
<title>σ_β&#45;&gt;β</title>
<path fill="none" stroke="black" d="M150.63,-307.8C150.78,-299.63 150.94,-290.85 151.1,-282.32"/>
<polygon fill="black" stroke="black" points="154.6,-282.16 151.29,-272.1 147.61,-282.04 154.6,-282.16"/>
</g>
<!-- β&#45;&gt;radon_like -->
<g id="edge6" class="edge">
<title>β&#45;&gt;radon_like</title>
<path fill="none" stroke="black" d="M151.96,-196.79C151.96,-185.38 151.96,-172.65 151.96,-160.63"/>
<polygon fill="black" stroke="black" points="155.46,-160.31 151.96,-150.31 148.46,-160.31 155.46,-160.31"/>
</g>
<!-- α&#45;&gt;radon_like -->
<g id="edge7" class="edge">
<title>α&#45;&gt;radon_like</title>
<path fill="none" stroke="black" d="M231.15,-202.2C222.68,-190.55 212.69,-177.4 202.96,-165.95 198.8,-161.06 194.3,-156.06 189.75,-151.17"/>
<polygon fill="black" stroke="black" points="192.02,-148.48 182.6,-143.63 186.94,-153.3 192.02,-148.48"/>
</g>
<!-- Minibatch -->
<g id="node9" class="node">
<title>Minibatch</title>
<ellipse fill="none" stroke="black" cx="151.96" cy="-18" rx="48.19" ry="18"/>
<text text-anchor="middle" x="151.96" y="-14.3" font-family="Times,serif" font-size="14.00">Minibatch</text>
</g>
<!-- radon_like&#45;&gt;Minibatch -->
<g id="edge8" class="edge">
<title>radon_like&#45;&gt;Minibatch</title>
<path fill="none" stroke="black" d="M151.96,-74.93C151.96,-65.45 151.96,-55.41 151.96,-46.49"/>
<polygon fill="black" stroke="black" points="155.46,-46.27 151.96,-36.27 148.46,-46.27 155.46,-46.27"/>
</g>
</g>
</svg>
