<?xml version="1.0" encoding="UTF-8" standalone="no"?>
<!DOCTYPE svg PUBLIC "-//W3C//DTD SVG 1.1//EN"
 "http://www.w3.org/Graphics/SVG/1.1/DTD/svg11.dtd">
<!-- Generated by graphviz version 2.42.3 (20191010.1750)
 -->
<!-- Title: %3 Pages: 1 -->
<svg width="415pt" height="391pt"
 viewBox="0.00 0.00 414.92 390.86" xmlns="http://www.w3.org/2000/svg" xmlns:xlink="http://www.w3.org/1999/xlink">
<g id="graph0" class="graph" transform="scale(1 1) rotate(0) translate(4 386.86)">
<title>%3</title>
<polygon fill="white" stroke="transparent" points="-4,4 -4,-386.86 410.92,-386.86 410.92,4 -4,4"/>
<g id="clust1" class="cluster">
<title>cluster85</title>
<path fill="none" stroke="black" d="M115.96,-165.95C115.96,-165.95 292.96,-165.95 292.96,-165.95 298.96,-165.95 304.96,-171.95 304.96,-177.95 304.96,-177.95 304.96,-267.91 304.96,-267.91 304.96,-273.91 298.96,-279.91 292.96,-279.91 292.96,-279.91 115.96,-279.91 115.96,-279.91 109.96,-279.91 103.96,-273.91 103.96,-267.91 103.96,-267.91 103.96,-177.95 103.96,-177.95 103.96,-171.95 109.96,-165.95 115.96,-165.95"/>
<text text-anchor="middle" x="289.46" y="-173.75" font-family="Times,serif" font-size="14.00">85</text>
</g>
<g id="clust2" class="cluster">
<title>cluster100</title>
<path fill="none" stroke="black" d="M204.96,-44C204.96,-44 304.96,-44 304.96,-44 310.96,-44 316.96,-50 316.96,-56 316.96,-56 316.96,-145.95 316.96,-145.95 316.96,-151.95 310.96,-157.95 304.96,-157.95 304.96,-157.95 204.96,-157.95 204.96,-157.95 198.96,-157.95 192.96,-151.95 192.96,-145.95 192.96,-145.95 192.96,-56 192.96,-56 192.96,-50 198.96,-44 204.96,-44"/>
<text text-anchor="middle" x="297.96" y="-51.8" font-family="Times,serif" font-size="14.00">100</text>
</g>
<!-- σ_α -->
<g id="node1" class="node">
<title>σ_α</title>
<ellipse fill="none" stroke="black" cx="257.96" cy="-345.38" rx="45.92" ry="37.45"/>
<text text-anchor="middle" x="257.96" y="-356.68" font-family="Times,serif" font-size="14.00">σ_α</text>
<text text-anchor="middle" x="257.96" y="-341.68" font-family="Times,serif" font-size="14.00">~</text>
<text text-anchor="middle" x="257.96" y="-326.68" font-family="Times,serif" font-size="14.00">Uniform</text>
</g>
<!-- α -->
<g id="node7" class="node">
<title>α</title>
<ellipse fill="none" stroke="black" cx="254.96" cy="-234.43" rx="41.94" ry="37.45"/>
<text text-anchor="middle" x="254.96" y="-245.73" font-family="Times,serif" font-size="14.00">α</text>
<text text-anchor="middle" x="254.96" y="-230.73" font-family="Times,serif" font-size="14.00">~</text>
<text text-anchor="middle" x="254.96" y="-215.73" font-family="Times,serif" font-size="14.00">Normal</text>
</g>
<!-- σ_α&#45;&gt;α -->
<g id="edge2" class="edge">
<title>σ_α&#45;&gt;α</title>
<path fill="none" stroke="black" d="M256.95,-307.8C256.73,-299.63 256.49,-290.85 256.25,-282.32"/>
<polygon fill="black" stroke="black" points="259.75,-282 255.97,-272.1 252.75,-282.19 259.75,-282"/>
</g>
<!-- ϵ -->
<g id="node2" class="node">
<title>ϵ</title>
<ellipse fill="none" stroke="black" cx="360.96" cy="-234.43" rx="45.92" ry="37.45"/>
<text text-anchor="middle" x="360.96" y="-245.73" font-family="Times,serif" font-size="14.00">ϵ</text>
<text text-anchor="middle" x="360.96" y="-230.73" font-family="Times,serif" font-size="14.00">~</text>
<text text-anchor="middle" x="360.96" y="-215.73" font-family="Times,serif" font-size="14.00">Uniform</text>
</g>
<!-- radon_like -->
<g id="node8" class="node">
<title>radon_like</title>
<ellipse fill="lightgrey" stroke="black" cx="254.96" cy="-112.48" rx="53.98" ry="37.45"/>
<text text-anchor="middle" x="254.96" y="-123.78" font-family="Times,serif" font-size="14.00">radon_like</text>
<text text-anchor="middle" x="254.96" y="-108.78" font-family="Times,serif" font-size="14.00">~</text>
<text text-anchor="middle" x="254.96" y="-93.78" font-family="Times,serif" font-size="14.00">Normal</text>
</g>
<!-- ϵ&#45;&gt;radon_like -->
<g id="edge5" class="edge">
<title>ϵ&#45;&gt;radon_like</title>
<path fill="none" stroke="black" d="M338.05,-201.78C329.3,-190.21 319,-177.21 308.96,-165.95 304.34,-160.77 299.32,-155.49 294.26,-150.36"/>
<polygon fill="black" stroke="black" points="296.41,-147.56 286.85,-142.99 291.47,-152.53 296.41,-147.56"/>
</g>
<!-- σ_β -->
<g id="node3" class="node">
<title>σ_β</title>
<ellipse fill="none" stroke="black" cx="45.96" cy="-345.38" rx="45.92" ry="37.45"/>
<text text-anchor="middle" x="45.96" y="-356.68" font-family="Times,serif" font-size="14.00">σ_β</text>
<text text-anchor="middle" x="45.96" y="-341.68" font-family="Times,serif" font-size="14.00">~</text>
<text text-anchor="middle" x="45.96" y="-326.68" font-family="Times,serif" font-size="14.00">Uniform</text>
</g>
<!-- β -->
<g id="node6" class="node">
<title>β</title>
<ellipse fill="none" stroke="black" cx="153.96" cy="-234.43" rx="41.94" ry="37.45"/>
<text text-anchor="middle" x="153.96" y="-245.73" font-family="Times,serif" font-size="14.00">β</text>
<text text-anchor="middle" x="153.96" y="-230.73" font-family="Times,serif" font-size="14.00">~</text>
<text text-anchor="middle" x="153.96" y="-215.73" font-family="Times,serif" font-size="14.00">Normal</text>
</g>
<!-- σ_β&#45;&gt;β -->
<g id="edge4" class="edge">
<title>σ_β&#45;&gt;β</title>
<path fill="none" stroke="black" d="M74.34,-315.76C88.07,-301.91 104.68,-285.15 119.16,-270.53"/>
<polygon fill="black" stroke="black" points="121.97,-272.68 126.52,-263.11 117,-267.75 121.97,-272.68"/>
</g>
<!-- μ_β -->
<g id="node4" class="node">
<title>μ_β</title>
<ellipse fill="none" stroke="black" cx="151.96" cy="-345.38" rx="41.94" ry="37.45"/>
<text text-anchor="middle" x="151.96" y="-356.68" font-family="Times,serif" font-size="14.00">μ_β</text>
<text text-anchor="middle" x="151.96" y="-341.68" font-family="Times,serif" font-size="14.00">~</text>
<text text-anchor="middle" x="151.96" y="-326.68" font-family="Times,serif" font-size="14.00">Normal</text>
</g>
<!-- μ_β&#45;&gt;β -->
<g id="edge3" class="edge">
<title>μ_β&#45;&gt;β</title>
<path fill="none" stroke="black" d="M152.63,-307.8C152.78,-299.63 152.94,-290.85 153.1,-282.32"/>
<polygon fill="black" stroke="black" points="156.6,-282.16 153.29,-272.1 149.61,-282.04 156.6,-282.16"/>
</g>
<!-- μ_α -->
<g id="node5" class="node">
<title>μ_α</title>
<ellipse fill="none" stroke="black" cx="363.96" cy="-345.38" rx="41.94" ry="37.45"/>
<text text-anchor="middle" x="363.96" y="-356.68" font-family="Times,serif" font-size="14.00">μ_α</text>
<text text-anchor="middle" x="363.96" y="-341.68" font-family="Times,serif" font-size="14.00">~</text>
<text text-anchor="middle" x="363.96" y="-326.68" font-family="Times,serif" font-size="14.00">Normal</text>
</g>
<!-- μ_α&#45;&gt;α -->
<g id="edge1" class="edge">
<title>μ_α&#45;&gt;α</title>
<path fill="none" stroke="black" d="M336.46,-316.89C322.26,-302.7 304.79,-285.23 289.67,-270.12"/>
<polygon fill="black" stroke="black" points="292.01,-267.51 282.46,-262.91 287.06,-272.46 292.01,-267.51"/>
</g>
<!-- β&#45;&gt;radon_like -->
<g id="edge6" class="edge">
<title>β&#45;&gt;radon_like</title>
<path fill="none" stroke="black" d="M175.77,-202.2C184.24,-190.55 194.24,-177.4 203.96,-165.95 208.12,-161.06 212.62,-156.06 217.17,-151.17"/>
<polygon fill="black" stroke="black" points="219.98,-153.3 224.32,-143.63 214.9,-148.48 219.98,-153.3"/>
</g>
<!-- α&#45;&gt;radon_like -->
<g id="edge7" class="edge">
<title>α&#45;&gt;radon_like</title>
<path fill="none" stroke="black" d="M254.96,-196.79C254.96,-185.38 254.96,-172.65 254.96,-160.63"/>
<polygon fill="black" stroke="black" points="258.46,-160.31 254.96,-150.31 251.46,-160.31 258.46,-160.31"/>
</g>
<!-- Minibatch -->
<g id="node9" class="node">
<title>Minibatch</title>
<ellipse fill="none" stroke="black" cx="254.96" cy="-18" rx="48.19" ry="18"/>
<text text-anchor="middle" x="254.96" y="-14.3" font-family="Times,serif" font-size="14.00">Minibatch</text>
</g>
<!-- radon_like&#45;&gt;Minibatch -->
<g id="edge8" class="edge">
<title>radon_like&#45;&gt;Minibatch</title>
<path fill="none" stroke="black" d="M254.96,-74.93C254.96,-65.45 254.96,-55.41 254.96,-46.49"/>
<polygon fill="black" stroke="black" points="258.46,-46.27 254.96,-36.27 251.46,-46.27 258.46,-46.27"/>
</g>
</g>
</svg>
