<?xml version="1.0" encoding="UTF-8" standalone="no"?>
<!DOCTYPE svg PUBLIC "-//W3C//DTD SVG 1.1//EN"
 "http://www.w3.org/Graphics/SVG/1.1/DTD/svg11.dtd">
<!-- Generated by graphviz version 2.42.3 (20191010.1750)
 -->
<!-- Title: %3 Pages: 1 -->
<svg width="635pt" height="260pt"
 viewBox="0.00 0.00 635.40 259.91" xmlns="http://www.w3.org/2000/svg" xmlns:xlink="http://www.w3.org/1999/xlink">
<g id="graph0" class="graph" transform="scale(1 1) rotate(0) translate(4 255.91)">
<title>%3</title>
<polygon fill="white" stroke="transparent" points="-4,4 -4,-255.91 631.4,-255.91 631.4,4 -4,4"/>
<g id="clust1" class="cluster">
<title>cluster2</title>
<path fill="none" stroke="black" d="M453.4,-129.95C453.4,-129.95 607.4,-129.95 607.4,-129.95 613.4,-129.95 619.4,-135.95 619.4,-141.95 619.4,-141.95 619.4,-231.91 619.4,-231.91 619.4,-237.91 613.4,-243.91 607.4,-243.91 607.4,-243.91 453.4,-243.91 453.4,-243.91 447.4,-243.91 441.4,-237.91 441.4,-231.91 441.4,-231.91 441.4,-141.95 441.4,-141.95 441.4,-135.95 447.4,-129.95 453.4,-129.95"/>
<text text-anchor="middle" x="607.4" y="-137.75" font-family="Times,serif" font-size="14.00">2</text>
</g>
<g id="clust2" class="cluster">
<title>cluster111</title>
<path fill="none" stroke="black" d="M251.4,-8C251.4,-8 335.4,-8 335.4,-8 341.4,-8 347.4,-14 347.4,-20 347.4,-20 347.4,-109.95 347.4,-109.95 347.4,-115.95 341.4,-121.95 335.4,-121.95 335.4,-121.95 251.4,-121.95 251.4,-121.95 245.4,-121.95 239.4,-115.95 239.4,-109.95 239.4,-109.95 239.4,-20 239.4,-20 239.4,-14 245.4,-8 251.4,-8"/>
<text text-anchor="middle" x="328.4" y="-15.8" font-family="Times,serif" font-size="14.00">111</text>
</g>
<!-- late_rate -->
<g id="node1" class="node">
<title>late_rate</title>
<ellipse fill="none" stroke="black" cx="59.4" cy="-198.43" rx="59.29" ry="37.45"/>
<text text-anchor="middle" x="59.4" y="-209.73" font-family="Times,serif" font-size="14.00">late_rate</text>
<text text-anchor="middle" x="59.4" y="-194.73" font-family="Times,serif" font-size="14.00">~</text>
<text text-anchor="middle" x="59.4" y="-179.73" font-family="Times,serif" font-size="14.00">Exponential</text>
</g>
<!-- disasters -->
<g id="node5" class="node">
<title>disasters</title>
<ellipse fill="lightgrey" stroke="black" cx="293.4" cy="-76.48" rx="45.92" ry="37.45"/>
<text text-anchor="middle" x="293.4" y="-87.78" font-family="Times,serif" font-size="14.00">disasters</text>
<text text-anchor="middle" x="293.4" y="-72.78" font-family="Times,serif" font-size="14.00">~</text>
<text text-anchor="middle" x="293.4" y="-57.78" font-family="Times,serif" font-size="14.00">Poisson</text>
</g>
<!-- late_rate&#45;&gt;disasters -->
<g id="edge2" class="edge">
<title>late_rate&#45;&gt;disasters</title>
<path fill="none" stroke="black" d="M86.69,-164.85C98.45,-152.49 113.03,-139.19 128.4,-129.95 162.37,-109.54 205.12,-96.23 238.59,-88.13"/>
<polygon fill="black" stroke="black" points="239.72,-91.46 248.66,-85.78 238.13,-84.64 239.72,-91.46"/>
</g>
<!-- switchpoint -->
<g id="node2" class="node">
<title>switchpoint</title>
<ellipse fill="none" stroke="black" cx="215.4" cy="-198.43" rx="78.48" ry="37.45"/>
<text text-anchor="middle" x="215.4" y="-209.73" font-family="Times,serif" font-size="14.00">switchpoint</text>
<text text-anchor="middle" x="215.4" y="-194.73" font-family="Times,serif" font-size="14.00">~</text>
<text text-anchor="middle" x="215.4" y="-179.73" font-family="Times,serif" font-size="14.00">DiscreteUniform</text>
</g>
<!-- switchpoint&#45;&gt;disasters -->
<g id="edge3" class="edge">
<title>switchpoint&#45;&gt;disasters</title>
<path fill="none" stroke="black" d="M238.17,-162.41C247.1,-148.67 257.43,-132.8 266.71,-118.52"/>
<polygon fill="black" stroke="black" points="269.82,-120.16 272.33,-109.87 263.95,-116.34 269.82,-120.16"/>
</g>
<!-- early_rate -->
<g id="node3" class="node">
<title>early_rate</title>
<ellipse fill="none" stroke="black" cx="371.4" cy="-198.43" rx="59.29" ry="37.45"/>
<text text-anchor="middle" x="371.4" y="-209.73" font-family="Times,serif" font-size="14.00">early_rate</text>
<text text-anchor="middle" x="371.4" y="-194.73" font-family="Times,serif" font-size="14.00">~</text>
<text text-anchor="middle" x="371.4" y="-179.73" font-family="Times,serif" font-size="14.00">Exponential</text>
</g>
<!-- early_rate&#45;&gt;disasters -->
<g id="edge4" class="edge">
<title>early_rate&#45;&gt;disasters</title>
<path fill="none" stroke="black" d="M349.25,-163.38C340.14,-149.37 329.51,-133.02 319.98,-118.36"/>
<polygon fill="black" stroke="black" points="322.91,-116.44 314.52,-109.96 317.04,-120.25 322.91,-116.44"/>
</g>
<!-- disasters_missing -->
<g id="node4" class="node">
<title>disasters_missing</title>
<ellipse fill="none" stroke="black" cx="530.4" cy="-198.43" rx="81.13" ry="37.45"/>
<text text-anchor="middle" x="530.4" y="-209.73" font-family="Times,serif" font-size="14.00">disasters_missing</text>
<text text-anchor="middle" x="530.4" y="-194.73" font-family="Times,serif" font-size="14.00">~</text>
<text text-anchor="middle" x="530.4" y="-179.73" font-family="Times,serif" font-size="14.00">NoDistribution</text>
</g>
<!-- disasters_missing&#45;&gt;disasters -->
<g id="edge1" class="edge">
<title>disasters_missing&#45;&gt;disasters</title>
<path fill="none" stroke="black" d="M492.21,-165.21C476.54,-153.05 457.78,-139.79 439.4,-129.95 409.98,-114.2 374.84,-101.41 346.41,-92.39"/>
<polygon fill="black" stroke="black" points="347.24,-88.99 336.65,-89.37 345.16,-95.67 347.24,-88.99"/>
</g>
</g>
</svg>
