<?xml version="1.0" encoding="UTF-8" standalone="no"?>
<!DOCTYPE svg PUBLIC "-//W3C//DTD SVG 1.1//EN"
 "http://www.w3.org/Graphics/SVG/1.1/DTD/svg11.dtd">
<!-- Generated by graphviz version 2.48.0 (0)
 -->
<!-- Pages: 1 -->
<svg width="146pt" height="322pt"
 viewBox="0.00 0.00 146.00 321.91" xmlns="http://www.w3.org/2000/svg" xmlns:xlink="http://www.w3.org/1999/xlink">
<g id="graph0" class="graph" transform="scale(1 1) rotate(0) translate(4 317.91)">
<polygon fill="white" stroke="transparent" points="-4,4 -4,-317.91 142,-317.91 142,4 -4,4"/>
<g id="clust1" class="cluster">
<title>cluster19</title>
<path fill="none" stroke="black" d="M20,-8C20,-8 118,-8 118,-8 124,-8 130,-14 130,-20 130,-20 130,-198.95 130,-198.95 130,-204.95 124,-210.95 118,-210.95 118,-210.95 20,-210.95 20,-210.95 14,-210.95 8,-204.95 8,-198.95 8,-198.95 8,-20 8,-20 8,-14 14,-8 20,-8"/>
<text text-anchor="middle" x="115" y="-15.8" font-family="Times,serif" font-size="14.00">19</text>
</g>
<!-- sigma_angle -->
<g id="node1" class="node">
<title>sigma_angle</title>
<ellipse fill="none" stroke="black" cx="69" cy="-276.43" rx="61.54" ry="37.45"/>
<text text-anchor="middle" x="69" y="-287.73" font-family="Times,serif" font-size="14.00">sigma_angle</text>
<text text-anchor="middle" x="69" y="-272.73" font-family="Times,serif" font-size="14.00">~</text>
<text text-anchor="middle" x="69" y="-257.73" font-family="Times,serif" font-size="14.00">HalfNormal</text>
</g>
<!-- p_goes_in_hole -->
<g id="node2" class="node">
<title>p_goes_in_hole</title>
<polygon fill="none" stroke="black" points="121.5,-202.95 16.5,-202.95 16.5,-149.95 121.5,-149.95 121.5,-202.95"/>
<text text-anchor="middle" x="69" y="-187.75" font-family="Times,serif" font-size="14.00">p_goes_in_hole</text>
<text text-anchor="middle" x="69" y="-172.75" font-family="Times,serif" font-size="14.00">~</text>
<text text-anchor="middle" x="69" y="-157.75" font-family="Times,serif" font-size="14.00">Deterministic</text>
</g>
<!-- sigma_angle&#45;&gt;p_goes_in_hole -->
<g id="edge1" class="edge">
<title>sigma_angle&#45;&gt;p_goes_in_hole</title>
<path fill="none" stroke="black" d="M69,-238.95C69,-230.53 69,-221.59 69,-213.2"/>
<polygon fill="black" stroke="black" points="72.5,-212.96 69,-202.96 65.5,-212.96 72.5,-212.96"/>
</g>
<!-- n_success -->
<g id="node3" class="node">
<title>n_success</title>
<ellipse fill="lightgrey" stroke="black" cx="69" cy="-76.48" rx="50.82" ry="37.45"/>
<text text-anchor="middle" x="69" y="-87.78" font-family="Times,serif" font-size="14.00">n_success</text>
<text text-anchor="middle" x="69" y="-72.78" font-family="Times,serif" font-size="14.00">~</text>
<text text-anchor="middle" x="69" y="-57.78" font-family="Times,serif" font-size="14.00">Binomial</text>
</g>
<!-- p_goes_in_hole&#45;&gt;n_success -->
<g id="edge2" class="edge">
<title>p_goes_in_hole&#45;&gt;n_success</title>
<path fill="none" stroke="black" d="M69,-149.71C69,-141.89 69,-133.03 69,-124.27"/>
<polygon fill="black" stroke="black" points="72.5,-124.1 69,-114.1 65.5,-124.1 72.5,-124.1"/>
</g>
</g>
</svg>
