<?xml version="1.0" encoding="UTF-8" standalone="no"?>
<!DOCTYPE svg PUBLIC "-//W3C//DTD SVG 1.1//EN"
 "http://www.w3.org/Graphics/SVG/1.1/DTD/svg11.dtd">
<!-- Generated by graphviz version 2.48.0 (0)
 -->
<!-- Pages: 1 -->
<svg width="192pt" height="233pt"
 viewBox="0.00 0.00 192.44 232.91" xmlns="http://www.w3.org/2000/svg" xmlns:xlink="http://www.w3.org/1999/xlink">
<g id="graph0" class="graph" transform="scale(1 1) rotate(0) translate(4 228.91)">
<polygon fill="white" stroke="transparent" points="-4,4 -4,-228.91 188.44,-228.91 188.44,4 -4,4"/>
<g id="clust1" class="cluster">
<title>cluster19</title>
<path fill="none" stroke="black" d="M46.72,-8C46.72,-8 136.72,-8 136.72,-8 142.72,-8 148.72,-14 148.72,-20 148.72,-20 148.72,-109.95 148.72,-109.95 148.72,-115.95 142.72,-121.95 136.72,-121.95 136.72,-121.95 46.72,-121.95 46.72,-121.95 40.72,-121.95 34.72,-115.95 34.72,-109.95 34.72,-109.95 34.72,-20 34.72,-20 34.72,-14 40.72,-8 46.72,-8"/>
<text text-anchor="middle" x="133.72" y="-15.8" font-family="Times,serif" font-size="14.00">19</text>
</g>
<!-- a -->
<g id="node1" class="node">
<title>a</title>
<ellipse fill="none" stroke="black" cx="41.72" cy="-187.43" rx="41.94" ry="37.45"/>
<text text-anchor="middle" x="41.72" y="-198.73" font-family="Times,serif" font-size="14.00">a</text>
<text text-anchor="middle" x="41.72" y="-183.73" font-family="Times,serif" font-size="14.00">~</text>
<text text-anchor="middle" x="41.72" y="-168.73" font-family="Times,serif" font-size="14.00">Normal</text>
</g>
<!-- success -->
<g id="node3" class="node">
<title>success</title>
<ellipse fill="lightgrey" stroke="black" cx="91.72" cy="-76.48" rx="48.58" ry="37.45"/>
<text text-anchor="middle" x="91.72" y="-87.78" font-family="Times,serif" font-size="14.00">success</text>
<text text-anchor="middle" x="91.72" y="-72.78" font-family="Times,serif" font-size="14.00">~</text>
<text text-anchor="middle" x="91.72" y="-57.78" font-family="Times,serif" font-size="14.00">Binomial</text>
</g>
<!-- a&#45;&gt;success -->
<g id="edge1" class="edge">
<title>a&#45;&gt;success</title>
<path fill="none" stroke="black" d="M57.27,-152.55C61.79,-142.7 66.79,-131.79 71.55,-121.42"/>
<polygon fill="black" stroke="black" points="74.85,-122.63 75.84,-112.08 68.49,-119.71 74.85,-122.63"/>
</g>
<!-- b -->
<g id="node2" class="node">
<title>b</title>
<ellipse fill="none" stroke="black" cx="142.72" cy="-187.43" rx="41.94" ry="37.45"/>
<text text-anchor="middle" x="142.72" y="-198.73" font-family="Times,serif" font-size="14.00">b</text>
<text text-anchor="middle" x="142.72" y="-183.73" font-family="Times,serif" font-size="14.00">~</text>
<text text-anchor="middle" x="142.72" y="-168.73" font-family="Times,serif" font-size="14.00">Normal</text>
</g>
<!-- b&#45;&gt;success -->
<g id="edge2" class="edge">
<title>b&#45;&gt;success</title>
<path fill="none" stroke="black" d="M126.86,-152.55C122.25,-142.7 117.15,-131.79 112.29,-121.42"/>
<polygon fill="black" stroke="black" points="115.33,-119.66 107.92,-112.08 108.99,-122.62 115.33,-119.66"/>
</g>
</g>
</svg>
