<?xml version="1.0" encoding="UTF-8" standalone="no"?>
<!DOCTYPE svg PUBLIC "-//W3C//DTD SVG 1.1//EN"
 "http://www.w3.org/Graphics/SVG/1.1/DTD/svg11.dtd">
<!-- Generated by graphviz version 2.49.3 (0)
 -->
<!-- Pages: 1 -->
<svg width="438pt" height="458pt"
 viewBox="0.00 0.00 437.97 457.81" xmlns="http://www.w3.org/2000/svg" xmlns:xlink="http://www.w3.org/1999/xlink">
<g id="graph0" class="graph" transform="scale(1 1) rotate(0) translate(4 453.81)">
<polygon fill="white" stroke="transparent" points="-4,4 -4,-453.81 433.97,-453.81 433.97,4 -4,4"/>
<g id="clust1" class="cluster">
<title>cluster3</title>
<path fill="none" stroke="black" d="M121.25,-232.91C121.25,-232.91 298.25,-232.91 298.25,-232.91 304.25,-232.91 310.25,-238.91 310.25,-244.91 310.25,-244.91 310.25,-334.86 310.25,-334.86 310.25,-340.86 304.25,-346.86 298.25,-346.86 298.25,-346.86 121.25,-346.86 121.25,-346.86 115.25,-346.86 109.25,-340.86 109.25,-334.86 109.25,-334.86 109.25,-244.91 109.25,-244.91 109.25,-238.91 115.25,-232.91 121.25,-232.91"/>
<text text-anchor="middle" x="298.25" y="-240.71" font-family="Times,serif" font-size="14.00">3</text>
</g>
<g id="clust2" class="cluster">
<title>cluster150</title>
<path fill="none" stroke="black" d="M150.25,-8C150.25,-8 260.25,-8 260.25,-8 266.25,-8 272.25,-14 272.25,-20 272.25,-20 272.25,-209.93 272.25,-209.93 272.25,-215.93 266.25,-221.93 260.25,-221.93 260.25,-221.93 150.25,-221.93 150.25,-221.93 144.25,-221.93 138.25,-215.93 138.25,-209.93 138.25,-209.93 138.25,-20 138.25,-20 138.25,-14 144.25,-8 150.25,-8"/>
<text text-anchor="middle" x="253.25" y="-15.8" font-family="Times,serif" font-size="14.00">150</text>
</g>
<!-- sigma_b -->
<g id="node1" class="node">
<title>sigma_b</title>
<ellipse fill="none" stroke="black" cx="45.25" cy="-412.34" rx="45.01" ry="37.45"/>
<text text-anchor="middle" x="45.25" y="-423.64" font-family="Times,serif" font-size="14.00">sigma_b</text>
<text text-anchor="middle" x="45.25" y="-408.64" font-family="Times,serif" font-size="14.00">~</text>
<text text-anchor="middle" x="45.25" y="-393.64" font-family="Times,serif" font-size="14.00">Gamma</text>
</g>
<!-- b -->
<g id="node7" class="node">
<title>b</title>
<ellipse fill="none" stroke="black" cx="159.25" cy="-301.38" rx="41.94" ry="37.45"/>
<text text-anchor="middle" x="159.25" y="-312.68" font-family="Times,serif" font-size="14.00">b</text>
<text text-anchor="middle" x="159.25" y="-297.68" font-family="Times,serif" font-size="14.00">~</text>
<text text-anchor="middle" x="159.25" y="-282.68" font-family="Times,serif" font-size="14.00">Normal</text>
</g>
<!-- sigma_b&#45;&gt;b -->
<g id="edge2" class="edge">
<title>sigma_b&#45;&gt;b</title>
<path fill="none" stroke="black" d="M74.32,-383.56C89.28,-369.26 107.66,-351.69 123.49,-336.56"/>
<polygon fill="black" stroke="black" points="126.22,-338.79 131.03,-329.35 121.39,-333.73 126.22,-338.79"/>
</g>
<!-- sigma_a -->
<g id="node2" class="node">
<title>sigma_a</title>
<ellipse fill="none" stroke="black" cx="269.25" cy="-412.34" rx="59.29" ry="37.45"/>
<text text-anchor="middle" x="269.25" y="-423.64" font-family="Times,serif" font-size="14.00">sigma_a</text>
<text text-anchor="middle" x="269.25" y="-408.64" font-family="Times,serif" font-size="14.00">~</text>
<text text-anchor="middle" x="269.25" y="-393.64" font-family="Times,serif" font-size="14.00">HalfNormal</text>
</g>
<!-- a -->
<g id="node6" class="node">
<title>a</title>
<ellipse fill="none" stroke="black" cx="260.25" cy="-301.38" rx="41.94" ry="37.45"/>
<text text-anchor="middle" x="260.25" y="-312.68" font-family="Times,serif" font-size="14.00">a</text>
<text text-anchor="middle" x="260.25" y="-297.68" font-family="Times,serif" font-size="14.00">~</text>
<text text-anchor="middle" x="260.25" y="-282.68" font-family="Times,serif" font-size="14.00">Normal</text>
</g>
<!-- sigma_a&#45;&gt;a -->
<g id="edge3" class="edge">
<title>sigma_a&#45;&gt;a</title>
<path fill="none" stroke="black" d="M266.23,-374.75C265.56,-366.58 264.83,-357.8 264.13,-349.27"/>
<polygon fill="black" stroke="black" points="267.6,-348.73 263.28,-339.06 260.62,-349.31 267.6,-348.73"/>
</g>
<!-- mu_a -->
<g id="node3" class="node">
<title>mu_a</title>
<ellipse fill="none" stroke="black" cx="388.25" cy="-412.34" rx="41.94" ry="37.45"/>
<text text-anchor="middle" x="388.25" y="-423.64" font-family="Times,serif" font-size="14.00">mu_a</text>
<text text-anchor="middle" x="388.25" y="-408.64" font-family="Times,serif" font-size="14.00">~</text>
<text text-anchor="middle" x="388.25" y="-393.64" font-family="Times,serif" font-size="14.00">Normal</text>
</g>
<!-- mu_a&#45;&gt;a -->
<g id="edge4" class="edge">
<title>mu_a&#45;&gt;a</title>
<path fill="none" stroke="black" d="M358.24,-385.79C340.19,-370.42 317.05,-350.73 297.79,-334.34"/>
<polygon fill="black" stroke="black" points="299.96,-331.58 290.08,-327.77 295.42,-336.91 299.96,-331.58"/>
</g>
<!-- mu_b -->
<g id="node4" class="node">
<title>mu_b</title>
<ellipse fill="none" stroke="black" cx="150.25" cy="-412.34" rx="41.94" ry="37.45"/>
<text text-anchor="middle" x="150.25" y="-423.64" font-family="Times,serif" font-size="14.00">mu_b</text>
<text text-anchor="middle" x="150.25" y="-408.64" font-family="Times,serif" font-size="14.00">~</text>
<text text-anchor="middle" x="150.25" y="-393.64" font-family="Times,serif" font-size="14.00">Normal</text>
</g>
<!-- mu_b&#45;&gt;b -->
<g id="edge1" class="edge">
<title>mu_b&#45;&gt;b</title>
<path fill="none" stroke="black" d="M153.28,-374.75C153.95,-366.58 154.68,-357.8 155.38,-349.27"/>
<polygon fill="black" stroke="black" points="158.89,-349.31 156.23,-339.06 151.91,-348.73 158.89,-349.31"/>
</g>
<!-- sigma -->
<g id="node5" class="node">
<title>sigma</title>
<ellipse fill="none" stroke="black" cx="339.25" cy="-187.43" rx="59.29" ry="37.45"/>
<text text-anchor="middle" x="339.25" y="-198.73" font-family="Times,serif" font-size="14.00">sigma</text>
<text text-anchor="middle" x="339.25" y="-183.73" font-family="Times,serif" font-size="14.00">~</text>
<text text-anchor="middle" x="339.25" y="-168.73" font-family="Times,serif" font-size="14.00">HalfNormal</text>
</g>
<!-- sepal_width -->
<g id="node9" class="node">
<title>sepal_width</title>
<ellipse fill="lightgrey" stroke="black" cx="205.25" cy="-76.48" rx="59.29" ry="37.45"/>
<text text-anchor="middle" x="205.25" y="-87.78" font-family="Times,serif" font-size="14.00">sepal_width</text>
<text text-anchor="middle" x="205.25" y="-72.78" font-family="Times,serif" font-size="14.00">~</text>
<text text-anchor="middle" x="205.25" y="-57.78" font-family="Times,serif" font-size="14.00">Normal</text>
</g>
<!-- sigma&#45;&gt;sepal_width -->
<g id="edge8" class="edge">
<title>sigma&#45;&gt;sepal_width</title>
<path fill="none" stroke="black" d="M303.35,-157.23C286.67,-143.68 266.7,-127.44 249.14,-113.16"/>
<polygon fill="black" stroke="black" points="251.23,-110.35 241.26,-106.75 246.81,-115.78 251.23,-110.35"/>
</g>
<!-- mu -->
<g id="node8" class="node">
<title>mu</title>
<polygon fill="none" stroke="black" points="251.75,-213.93 158.75,-213.93 158.75,-160.93 251.75,-160.93 251.75,-213.93"/>
<text text-anchor="middle" x="205.25" y="-198.73" font-family="Times,serif" font-size="14.00">mu</text>
<text text-anchor="middle" x="205.25" y="-183.73" font-family="Times,serif" font-size="14.00">~</text>
<text text-anchor="middle" x="205.25" y="-168.73" font-family="Times,serif" font-size="14.00">Deterministic</text>
</g>
<!-- a&#45;&gt;mu -->
<g id="edge5" class="edge">
<title>a&#45;&gt;mu</title>
<path fill="none" stroke="black" d="M243.75,-266.79C237.02,-253.08 229.23,-237.23 222.42,-223.38"/>
<polygon fill="black" stroke="black" points="225.45,-221.6 217.9,-214.16 219.17,-224.68 225.45,-221.6"/>
</g>
<!-- b&#45;&gt;mu -->
<g id="edge6" class="edge">
<title>b&#45;&gt;mu</title>
<path fill="none" stroke="black" d="M173.43,-265.88C178.95,-252.44 185.28,-237.05 190.82,-223.55"/>
<polygon fill="black" stroke="black" points="194.14,-224.69 194.7,-214.11 187.67,-222.03 194.14,-224.69"/>
</g>
<!-- mu&#45;&gt;sepal_width -->
<g id="edge7" class="edge">
<title>mu&#45;&gt;sepal_width</title>
<path fill="none" stroke="black" d="M205.25,-160.89C205.25,-149.98 205.25,-136.89 205.25,-124.35"/>
<polygon fill="black" stroke="black" points="208.75,-124 205.25,-114 201.75,-124 208.75,-124"/>
</g>
</g>
</svg>
