<?xml version="1.0" encoding="UTF-8" standalone="no"?>
<!DOCTYPE svg PUBLIC "-//W3C//DTD SVG 1.1//EN"
 "http://www.w3.org/Graphics/SVG/1.1/DTD/svg11.dtd">
<!-- Generated by graphviz version 2.42.3 (20191010.1750)
 -->
<!-- Title: %3 Pages: 1 -->
<svg width="465pt" height="455pt"
 viewBox="0.00 0.00 465.48 454.84" xmlns="http://www.w3.org/2000/svg" xmlns:xlink="http://www.w3.org/1999/xlink">
<g id="graph0" class="graph" transform="scale(1 1) rotate(0) translate(4 450.84)">
<title>%3</title>
<polygon fill="white" stroke="transparent" points="-4,4 -4,-450.84 461.48,-450.84 461.48,4 -4,4"/>
<g id="clust1" class="cluster">
<title>cluster6</title>
<path fill="none" stroke="black" d="M204.72,-129.95C204.72,-129.95 424.72,-129.95 424.72,-129.95 430.72,-129.95 436.72,-135.95 436.72,-141.95 436.72,-141.95 436.72,-331.88 436.72,-331.88 436.72,-337.88 430.72,-343.88 424.72,-343.88 424.72,-343.88 204.72,-343.88 204.72,-343.88 198.72,-343.88 192.72,-337.88 192.72,-331.88 192.72,-331.88 192.72,-141.95 192.72,-141.95 192.72,-135.95 198.72,-129.95 204.72,-129.95"/>
<text text-anchor="middle" x="424.72" y="-137.75" font-family="Times,serif" font-size="14.00">6</text>
</g>
<g id="clust2" class="cluster">
<title>cluster60</title>
<path fill="none" stroke="black" d="M83.72,-8C83.72,-8 342.72,-8 342.72,-8 348.72,-8 354.72,-14 354.72,-20 354.72,-20 354.72,-109.95 354.72,-109.95 354.72,-115.95 348.72,-121.95 342.72,-121.95 342.72,-121.95 83.72,-121.95 83.72,-121.95 77.72,-121.95 71.72,-115.95 71.72,-109.95 71.72,-109.95 71.72,-20 71.72,-20 71.72,-14 77.72,-8 83.72,-8"/>
<text text-anchor="middle" x="339.22" y="-15.8" font-family="Times,serif" font-size="14.00">60</text>
</g>
<!-- α -->
<g id="node1" class="node">
<title>α</title>
<ellipse fill="none" stroke="black" cx="142.72" cy="-187.45" rx="41.94" ry="37.45"/>
<text text-anchor="middle" x="142.72" y="-198.75" font-family="Times,serif" font-size="14.00">α</text>
<text text-anchor="middle" x="142.72" y="-183.75" font-family="Times,serif" font-size="14.00">~</text>
<text text-anchor="middle" x="142.72" y="-168.75" font-family="Times,serif" font-size="14.00">Normal</text>
</g>
<!-- away_points -->
<g id="node9" class="node">
<title>away_points</title>
<ellipse fill="lightgrey" stroke="black" cx="284.72" cy="-76.48" rx="61.54" ry="37.45"/>
<text text-anchor="middle" x="284.72" y="-87.78" font-family="Times,serif" font-size="14.00">away_points</text>
<text text-anchor="middle" x="284.72" y="-72.78" font-family="Times,serif" font-size="14.00">~</text>
<text text-anchor="middle" x="284.72" y="-57.78" font-family="Times,serif" font-size="14.00">Poisson</text>
</g>
<!-- α&#45;&gt;away_points -->
<g id="edge9" class="edge">
<title>α&#45;&gt;away_points</title>
<path fill="none" stroke="black" d="M163.29,-154.61C170.41,-145.58 179.07,-136.46 188.72,-129.95 198.75,-123.2 203.74,-127.02 214.72,-121.95 221.89,-118.65 229.2,-114.71 236.26,-110.58"/>
<polygon fill="black" stroke="black" points="238.3,-113.43 245.05,-105.26 234.68,-107.44 238.3,-113.43"/>
</g>
<!-- home_points -->
<g id="node10" class="node">
<title>home_points</title>
<ellipse fill="lightgrey" stroke="black" cx="142.72" cy="-76.48" rx="62.87" ry="37.45"/>
<text text-anchor="middle" x="142.72" y="-87.78" font-family="Times,serif" font-size="14.00">home_points</text>
<text text-anchor="middle" x="142.72" y="-72.78" font-family="Times,serif" font-size="14.00">~</text>
<text text-anchor="middle" x="142.72" y="-57.78" font-family="Times,serif" font-size="14.00">Poisson</text>
</g>
<!-- α&#45;&gt;home_points -->
<g id="edge5" class="edge">
<title>α&#45;&gt;home_points</title>
<path fill="none" stroke="black" d="M142.72,-149.86C142.72,-141.69 142.72,-132.9 142.72,-124.38"/>
<polygon fill="black" stroke="black" points="146.22,-124.16 142.72,-114.16 139.22,-124.16 146.22,-124.16"/>
</g>
<!-- home -->
<g id="node2" class="node">
<title>home</title>
<ellipse fill="none" stroke="black" cx="41.72" cy="-187.45" rx="41.94" ry="37.45"/>
<text text-anchor="middle" x="41.72" y="-198.75" font-family="Times,serif" font-size="14.00">home</text>
<text text-anchor="middle" x="41.72" y="-183.75" font-family="Times,serif" font-size="14.00">~</text>
<text text-anchor="middle" x="41.72" y="-168.75" font-family="Times,serif" font-size="14.00">Normal</text>
</g>
<!-- home&#45;&gt;home_points -->
<g id="edge7" class="edge">
<title>home&#45;&gt;home_points</title>
<path fill="none" stroke="black" d="M66.9,-157.48C74.76,-148.57 83.52,-138.79 91.72,-129.95 95.76,-125.6 100.03,-121.08 104.3,-116.61"/>
<polygon fill="black" stroke="black" points="107.05,-118.8 111.46,-109.16 102.01,-113.94 107.05,-118.8"/>
</g>
<!-- τ_def -->
<g id="node3" class="node">
<title>τ_def</title>
<ellipse fill="none" stroke="black" cx="241.72" cy="-409.36" rx="65.52" ry="37.45"/>
<text text-anchor="middle" x="241.72" y="-420.66" font-family="Times,serif" font-size="14.00">τ_def</text>
<text text-anchor="middle" x="241.72" y="-405.66" font-family="Times,serif" font-size="14.00">~</text>
<text text-anchor="middle" x="241.72" y="-390.66" font-family="Times,serif" font-size="14.00">HalfStudentT</text>
</g>
<!-- def_star_g -->
<g id="node7" class="node">
<title>def_star_g</title>
<ellipse fill="none" stroke="black" cx="254.72" cy="-298.41" rx="53.98" ry="37.45"/>
<text text-anchor="middle" x="254.72" y="-309.71" font-family="Times,serif" font-size="14.00">def_star_g</text>
<text text-anchor="middle" x="254.72" y="-294.71" font-family="Times,serif" font-size="14.00">~</text>
<text text-anchor="middle" x="254.72" y="-279.71" font-family="Times,serif" font-size="14.00">Normal</text>
</g>
<!-- τ_def&#45;&gt;def_star_g -->
<g id="edge2" class="edge">
<title>τ_def&#45;&gt;def_star_g</title>
<path fill="none" stroke="black" d="M246.08,-371.78C247.07,-363.51 248.13,-354.63 249.16,-346.02"/>
<polygon fill="black" stroke="black" points="252.63,-346.42 250.34,-336.08 245.68,-345.59 252.63,-346.42"/>
</g>
<!-- τ_att -->
<g id="node4" class="node">
<title>τ_att</title>
<ellipse fill="none" stroke="black" cx="391.72" cy="-409.36" rx="65.52" ry="37.45"/>
<text text-anchor="middle" x="391.72" y="-420.66" font-family="Times,serif" font-size="14.00">τ_att</text>
<text text-anchor="middle" x="391.72" y="-405.66" font-family="Times,serif" font-size="14.00">~</text>
<text text-anchor="middle" x="391.72" y="-390.66" font-family="Times,serif" font-size="14.00">HalfStudentT</text>
</g>
<!-- att_star_g -->
<g id="node6" class="node">
<title>att_star_g</title>
<ellipse fill="none" stroke="black" cx="377.72" cy="-298.41" rx="50.82" ry="37.45"/>
<text text-anchor="middle" x="377.72" y="-309.71" font-family="Times,serif" font-size="14.00">att_star_g</text>
<text text-anchor="middle" x="377.72" y="-294.71" font-family="Times,serif" font-size="14.00">~</text>
<text text-anchor="middle" x="377.72" y="-279.71" font-family="Times,serif" font-size="14.00">Normal</text>
</g>
<!-- τ_att&#45;&gt;att_star_g -->
<g id="edge1" class="edge">
<title>τ_att&#45;&gt;att_star_g</title>
<path fill="none" stroke="black" d="M387.02,-371.78C385.96,-363.51 384.82,-354.63 383.71,-346.02"/>
<polygon fill="black" stroke="black" points="387.18,-345.55 382.43,-336.08 380.23,-346.44 387.18,-345.55"/>
</g>
<!-- att_g -->
<g id="node5" class="node">
<title>att_g</title>
<polygon fill="none" stroke="black" points="409.22,-213.95 316.22,-213.95 316.22,-160.95 409.22,-160.95 409.22,-213.95"/>
<text text-anchor="middle" x="362.72" y="-198.75" font-family="Times,serif" font-size="14.00">att_g</text>
<text text-anchor="middle" x="362.72" y="-183.75" font-family="Times,serif" font-size="14.00">~</text>
<text text-anchor="middle" x="362.72" y="-168.75" font-family="Times,serif" font-size="14.00">Deterministic</text>
</g>
<!-- att_g&#45;&gt;away_points -->
<g id="edge10" class="edge">
<title>att_g&#45;&gt;away_points</title>
<path fill="none" stroke="black" d="M344.43,-160.9C335.63,-148.61 324.85,-133.54 314.88,-119.62"/>
<polygon fill="black" stroke="black" points="317.47,-117.22 308.8,-111.13 311.78,-121.29 317.47,-117.22"/>
</g>
<!-- att_g&#45;&gt;home_points -->
<g id="edge6" class="edge">
<title>att_g&#45;&gt;home_points</title>
<path fill="none" stroke="black" d="M344.73,-160.92C335.15,-149.4 322.32,-136.86 307.72,-129.95 269.82,-112.02 253.49,-135.23 213.72,-121.95 205.69,-119.27 197.64,-115.51 189.99,-111.3"/>
<polygon fill="black" stroke="black" points="191.63,-108.2 181.23,-106.18 188.1,-114.25 191.63,-108.2"/>
</g>
<!-- att_star_g&#45;&gt;att_g -->
<g id="edge3" class="edge">
<title>att_star_g&#45;&gt;att_g</title>
<path fill="none" stroke="black" d="M372.68,-260.82C371.05,-248.97 369.24,-235.84 367.62,-224.05"/>
<polygon fill="black" stroke="black" points="371.08,-223.53 366.25,-214.11 364.15,-224.49 371.08,-223.53"/>
</g>
<!-- def_g -->
<g id="node8" class="node">
<title>def_g</title>
<polygon fill="none" stroke="black" points="298.22,-213.95 205.22,-213.95 205.22,-160.95 298.22,-160.95 298.22,-213.95"/>
<text text-anchor="middle" x="251.72" y="-198.75" font-family="Times,serif" font-size="14.00">def_g</text>
<text text-anchor="middle" x="251.72" y="-183.75" font-family="Times,serif" font-size="14.00">~</text>
<text text-anchor="middle" x="251.72" y="-168.75" font-family="Times,serif" font-size="14.00">Deterministic</text>
</g>
<!-- def_star_g&#45;&gt;def_g -->
<g id="edge4" class="edge">
<title>def_star_g&#45;&gt;def_g</title>
<path fill="none" stroke="black" d="M253.71,-260.82C253.39,-249.09 253.03,-236.1 252.71,-224.41"/>
<polygon fill="black" stroke="black" points="256.2,-224.01 252.43,-214.11 249.2,-224.2 256.2,-224.01"/>
</g>
<!-- def_g&#45;&gt;away_points -->
<g id="edge11" class="edge">
<title>def_g&#45;&gt;away_points</title>
<path fill="none" stroke="black" d="M259.46,-160.9C262.86,-149.67 266.96,-136.13 270.86,-123.26"/>
<polygon fill="black" stroke="black" points="274.23,-124.18 273.78,-113.59 267.53,-122.15 274.23,-124.18"/>
</g>
<!-- def_g&#45;&gt;home_points -->
<g id="edge8" class="edge">
<title>def_g&#45;&gt;home_points</title>
<path fill="none" stroke="black" d="M226.16,-160.9C212.86,-147.6 196.32,-131.06 181.48,-116.23"/>
<polygon fill="black" stroke="black" points="183.9,-113.7 174.35,-109.1 178.95,-118.65 183.9,-113.7"/>
</g>
</g>
</svg>
