<?xml version="1.0" encoding="UTF-8" standalone="no"?>
<!DOCTYPE svg PUBLIC "-//W3C//DTD SVG 1.1//EN"
 "http://www.w3.org/Graphics/SVG/1.1/DTD/svg11.dtd">
<!-- Generated by graphviz version 2.42.3 (20191010.1750)
 -->
<!-- Title: %3 Pages: 1 -->
<svg width="462pt" height="455pt"
 viewBox="0.00 0.00 462.48 454.84" xmlns="http://www.w3.org/2000/svg" xmlns:xlink="http://www.w3.org/1999/xlink">
<g id="graph0" class="graph" transform="scale(1 1) rotate(0) translate(4 450.84)">
<title>%3</title>
<polygon fill="white" stroke="transparent" points="-4,4 -4,-450.84 458.48,-450.84 458.48,4 -4,4"/>
<g id="clust1" class="cluster">
<title>cluster6</title>
<path fill="none" stroke="black" d="M204.72,-129.95C204.72,-129.95 424.72,-129.95 424.72,-129.95 430.72,-129.95 436.72,-135.95 436.72,-141.95 436.72,-141.95 436.72,-331.88 436.72,-331.88 436.72,-337.88 430.72,-343.88 424.72,-343.88 424.72,-343.88 204.72,-343.88 204.72,-343.88 198.72,-343.88 192.72,-337.88 192.72,-331.88 192.72,-331.88 192.72,-141.95 192.72,-141.95 192.72,-135.95 198.72,-129.95 204.72,-129.95"/>
<text text-anchor="middle" x="424.72" y="-137.75" font-family="Times,serif" font-size="14.00">6</text>
</g>
<g id="clust2" class="cluster">
<title>cluster60</title>
<path fill="none" stroke="black" d="M83.72,-8C83.72,-8 342.72,-8 342.72,-8 348.72,-8 354.72,-14 354.72,-20 354.72,-20 354.72,-109.95 354.72,-109.95 354.72,-115.95 348.72,-121.95 342.72,-121.95 342.72,-121.95 83.72,-121.95 83.72,-121.95 77.72,-121.95 71.72,-115.95 71.72,-109.95 71.72,-109.95 71.72,-20 71.72,-20 71.72,-14 77.72,-8 83.72,-8"/>
<text text-anchor="middle" x="339.22" y="-15.8" font-family="Times,serif" font-size="14.00">60</text>
</g>
<!-- α -->
<g id="node1" class="node">
<title>α</title>
<ellipse fill="none" stroke="black" cx="142.72" cy="-187.45" rx="41.94" ry="37.45"/>
<text text-anchor="middle" x="142.72" y="-198.75" font-family="Times,serif" font-size="14.00">α</text>
<text text-anchor="middle" x="142.72" y="-183.75" font-family="Times,serif" font-size="14.00">~</text>
<text text-anchor="middle" x="142.72" y="-168.75" font-family="Times,serif" font-size="14.00">Normal</text>
</g>
<!-- away_points -->
<g id="node9" class="node">
<title>away_points</title>
<ellipse fill="lightgrey" stroke="black" cx="284.72" cy="-76.48" rx="61.54" ry="37.45"/>
<text text-anchor="middle" x="284.72" y="-87.78" font-family="Times,serif" font-size="14.00">away_points</text>
<text text-anchor="middle" x="284.72" y="-72.78" font-family="Times,serif" font-size="14.00">~</text>
<text text-anchor="middle" x="284.72" y="-57.78" font-family="Times,serif" font-size="14.00">Poisson</text>
</g>
<!-- α&#45;&gt;away_points -->
<g id="edge10" class="edge">
<title>α&#45;&gt;away_points</title>
<path fill="none" stroke="black" d="M163.29,-154.61C170.41,-145.58 179.07,-136.46 188.72,-129.95 198.75,-123.2 203.74,-127.02 214.72,-121.95 221.89,-118.65 229.2,-114.71 236.26,-110.58"/>
<polygon fill="black" stroke="black" points="238.3,-113.43 245.05,-105.26 234.68,-107.44 238.3,-113.43"/>
</g>
<!-- home_points -->
<g id="node10" class="node">
<title>home_points</title>
<ellipse fill="lightgrey" stroke="black" cx="142.72" cy="-76.48" rx="62.87" ry="37.45"/>
<text text-anchor="middle" x="142.72" y="-87.78" font-family="Times,serif" font-size="14.00">home_points</text>
<text text-anchor="middle" x="142.72" y="-72.78" font-family="Times,serif" font-size="14.00">~</text>
<text text-anchor="middle" x="142.72" y="-57.78" font-family="Times,serif" font-size="14.00">Poisson</text>
</g>
<!-- α&#45;&gt;home_points -->
<g id="edge7" class="edge">
<title>α&#45;&gt;home_points</title>
<path fill="none" stroke="black" d="M142.72,-149.86C142.72,-141.69 142.72,-132.9 142.72,-124.38"/>
<polygon fill="black" stroke="black" points="146.22,-124.16 142.72,-114.16 139.22,-124.16 146.22,-124.16"/>
</g>
<!-- τ_att -->
<g id="node2" class="node">
<title>τ_att</title>
<ellipse fill="none" stroke="black" cx="238.72" cy="-409.36" rx="65.52" ry="37.45"/>
<text text-anchor="middle" x="238.72" y="-420.66" font-family="Times,serif" font-size="14.00">τ_att</text>
<text text-anchor="middle" x="238.72" y="-405.66" font-family="Times,serif" font-size="14.00">~</text>
<text text-anchor="middle" x="238.72" y="-390.66" font-family="Times,serif" font-size="14.00">HalfStudentT</text>
</g>
<!-- att_star_g -->
<g id="node6" class="node">
<title>att_star_g</title>
<ellipse fill="none" stroke="black" cx="251.72" cy="-298.41" rx="50.82" ry="37.45"/>
<text text-anchor="middle" x="251.72" y="-309.71" font-family="Times,serif" font-size="14.00">att_star_g</text>
<text text-anchor="middle" x="251.72" y="-294.71" font-family="Times,serif" font-size="14.00">~</text>
<text text-anchor="middle" x="251.72" y="-279.71" font-family="Times,serif" font-size="14.00">Normal</text>
</g>
<!-- τ_att&#45;&gt;att_star_g -->
<g id="edge1" class="edge">
<title>τ_att&#45;&gt;att_star_g</title>
<path fill="none" stroke="black" d="M243.08,-371.78C244.07,-363.51 245.13,-354.63 246.16,-346.02"/>
<polygon fill="black" stroke="black" points="249.63,-346.42 247.34,-336.08 242.68,-345.59 249.63,-346.42"/>
</g>
<!-- τ_def -->
<g id="node3" class="node">
<title>τ_def</title>
<ellipse fill="none" stroke="black" cx="388.72" cy="-409.36" rx="65.52" ry="37.45"/>
<text text-anchor="middle" x="388.72" y="-420.66" font-family="Times,serif" font-size="14.00">τ_def</text>
<text text-anchor="middle" x="388.72" y="-405.66" font-family="Times,serif" font-size="14.00">~</text>
<text text-anchor="middle" x="388.72" y="-390.66" font-family="Times,serif" font-size="14.00">HalfStudentT</text>
</g>
<!-- def_star_g -->
<g id="node7" class="node">
<title>def_star_g</title>
<ellipse fill="none" stroke="black" cx="374.72" cy="-298.41" rx="53.98" ry="37.45"/>
<text text-anchor="middle" x="374.72" y="-309.71" font-family="Times,serif" font-size="14.00">def_star_g</text>
<text text-anchor="middle" x="374.72" y="-294.71" font-family="Times,serif" font-size="14.00">~</text>
<text text-anchor="middle" x="374.72" y="-279.71" font-family="Times,serif" font-size="14.00">Normal</text>
</g>
<!-- τ_def&#45;&gt;def_star_g -->
<g id="edge2" class="edge">
<title>τ_def&#45;&gt;def_star_g</title>
<path fill="none" stroke="black" d="M384.02,-371.78C382.96,-363.51 381.82,-354.63 380.71,-346.02"/>
<polygon fill="black" stroke="black" points="384.18,-345.55 379.43,-336.08 377.23,-346.44 384.18,-345.55"/>
</g>
<!-- home -->
<g id="node4" class="node">
<title>home</title>
<ellipse fill="none" stroke="black" cx="41.72" cy="-187.45" rx="41.94" ry="37.45"/>
<text text-anchor="middle" x="41.72" y="-198.75" font-family="Times,serif" font-size="14.00">home</text>
<text text-anchor="middle" x="41.72" y="-183.75" font-family="Times,serif" font-size="14.00">~</text>
<text text-anchor="middle" x="41.72" y="-168.75" font-family="Times,serif" font-size="14.00">Normal</text>
</g>
<!-- home&#45;&gt;home_points -->
<g id="edge6" class="edge">
<title>home&#45;&gt;home_points</title>
<path fill="none" stroke="black" d="M66.9,-157.48C74.76,-148.57 83.52,-138.79 91.72,-129.95 95.76,-125.6 100.03,-121.08 104.3,-116.61"/>
<polygon fill="black" stroke="black" points="107.05,-118.8 111.46,-109.16 102.01,-113.94 107.05,-118.8"/>
</g>
<!-- att_g -->
<g id="node5" class="node">
<title>att_g</title>
<polygon fill="none" stroke="black" points="297.22,-213.95 204.22,-213.95 204.22,-160.95 297.22,-160.95 297.22,-213.95"/>
<text text-anchor="middle" x="250.72" y="-198.75" font-family="Times,serif" font-size="14.00">att_g</text>
<text text-anchor="middle" x="250.72" y="-183.75" font-family="Times,serif" font-size="14.00">~</text>
<text text-anchor="middle" x="250.72" y="-168.75" font-family="Times,serif" font-size="14.00">Deterministic</text>
</g>
<!-- att_g&#45;&gt;away_points -->
<g id="edge9" class="edge">
<title>att_g&#45;&gt;away_points</title>
<path fill="none" stroke="black" d="M258.69,-160.9C262.19,-149.67 266.42,-136.13 270.44,-123.26"/>
<polygon fill="black" stroke="black" points="273.81,-124.18 273.45,-113.59 267.13,-122.1 273.81,-124.18"/>
</g>
<!-- att_g&#45;&gt;home_points -->
<g id="edge5" class="edge">
<title>att_g&#45;&gt;home_points</title>
<path fill="none" stroke="black" d="M225.4,-160.9C212.22,-147.6 195.83,-131.06 181.12,-116.23"/>
<polygon fill="black" stroke="black" points="183.59,-113.74 174.06,-109.1 178.61,-118.67 183.59,-113.74"/>
</g>
<!-- att_star_g&#45;&gt;att_g -->
<g id="edge3" class="edge">
<title>att_star_g&#45;&gt;att_g</title>
<path fill="none" stroke="black" d="M251.38,-260.82C251.28,-249.09 251.16,-236.1 251.05,-224.41"/>
<polygon fill="black" stroke="black" points="254.55,-224.07 250.95,-214.11 247.55,-224.14 254.55,-224.07"/>
</g>
<!-- def_g -->
<g id="node8" class="node">
<title>def_g</title>
<polygon fill="none" stroke="black" points="408.22,-213.95 315.22,-213.95 315.22,-160.95 408.22,-160.95 408.22,-213.95"/>
<text text-anchor="middle" x="361.72" y="-198.75" font-family="Times,serif" font-size="14.00">def_g</text>
<text text-anchor="middle" x="361.72" y="-183.75" font-family="Times,serif" font-size="14.00">~</text>
<text text-anchor="middle" x="361.72" y="-168.75" font-family="Times,serif" font-size="14.00">Deterministic</text>
</g>
<!-- def_star_g&#45;&gt;def_g -->
<g id="edge4" class="edge">
<title>def_star_g&#45;&gt;def_g</title>
<path fill="none" stroke="black" d="M370.35,-260.82C368.94,-248.97 367.37,-235.84 365.97,-224.05"/>
<polygon fill="black" stroke="black" points="369.44,-223.62 364.78,-214.11 362.49,-224.45 369.44,-223.62"/>
</g>
<!-- def_g&#45;&gt;away_points -->
<g id="edge11" class="edge">
<title>def_g&#45;&gt;away_points</title>
<path fill="none" stroke="black" d="M343.67,-160.9C334.98,-148.61 324.33,-133.54 314.49,-119.62"/>
<polygon fill="black" stroke="black" points="317.12,-117.27 308.49,-111.13 311.41,-121.31 317.12,-117.27"/>
</g>
<!-- def_g&#45;&gt;home_points -->
<g id="edge8" class="edge">
<title>def_g&#45;&gt;home_points</title>
<path fill="none" stroke="black" d="M343.73,-160.93C334.14,-149.41 321.32,-136.87 306.72,-129.95 269.23,-112.2 253.06,-135.11 213.72,-121.95 205.69,-119.27 197.64,-115.5 189.99,-111.29"/>
<polygon fill="black" stroke="black" points="191.63,-108.19 181.23,-106.17 188.1,-114.24 191.63,-108.19"/>
</g>
</g>
</svg>
