<?xml version="1.0" encoding="UTF-8" standalone="no"?>
<!DOCTYPE svg PUBLIC "-//W3C//DTD SVG 1.1//EN"
 "http://www.w3.org/Graphics/SVG/1.1/DTD/svg11.dtd">
<!-- Generated by graphviz version 2.42.3 (20191010.1750)
 -->
<!-- Title: %3 Pages: 1 -->
<svg width="212pt" height="438pt"
 viewBox="0.00 0.00 211.72 437.91" xmlns="http://www.w3.org/2000/svg" xmlns:xlink="http://www.w3.org/1999/xlink">
<g id="graph0" class="graph" transform="scale(1 1) rotate(0) translate(4 433.91)">
<title>%3</title>
<polygon fill="white" stroke="transparent" points="-4,4 -4,-433.91 207.72,-433.91 207.72,4 -4,4"/>
<g id="clust1" class="cluster">
<title>cluster76</title>
<path fill="none" stroke="black" d="M20,-307.95C20,-307.95 98,-307.95 98,-307.95 104,-307.95 110,-313.95 110,-319.95 110,-319.95 110,-409.91 110,-409.91 110,-415.91 104,-421.91 98,-421.91 98,-421.91 20,-421.91 20,-421.91 14,-421.91 8,-415.91 8,-409.91 8,-409.91 8,-319.95 8,-319.95 8,-313.95 14,-307.95 20,-307.95"/>
<text text-anchor="middle" x="94.5" y="-315.75" font-family="Times,serif" font-size="14.00">76</text>
</g>
<g id="clust2" class="cluster">
<title>cluster44 x 76</title>
<path fill="none" stroke="black" d="M43,-8C43,-8 129,-8 129,-8 135,-8 141,-14 141,-20 141,-20 141,-287.95 141,-287.95 141,-293.95 135,-299.95 129,-299.95 129,-299.95 43,-299.95 43,-299.95 37,-299.95 31,-293.95 31,-287.95 31,-287.95 31,-20 31,-20 31,-14 37,-8 43,-8"/>
<text text-anchor="middle" x="111.5" y="-15.8" font-family="Times,serif" font-size="14.00">44 x 76</text>
</g>
<!-- λ0 -->
<g id="node1" class="node">
<title>λ0</title>
<ellipse fill="none" stroke="black" cx="59" cy="-376.43" rx="43.27" ry="37.45"/>
<text text-anchor="middle" x="59" y="-387.73" font-family="Times,serif" font-size="14.00">λ0</text>
<text text-anchor="middle" x="59" y="-372.73" font-family="Times,serif" font-size="14.00">~</text>
<text text-anchor="middle" x="59" y="-357.73" font-family="Times,serif" font-size="14.00">Gamma</text>
</g>
<!-- λ -->
<g id="node3" class="node">
<title>λ</title>
<polygon fill="none" stroke="black" points="132.5,-291.95 39.5,-291.95 39.5,-238.95 132.5,-238.95 132.5,-291.95"/>
<text text-anchor="middle" x="86" y="-276.75" font-family="Times,serif" font-size="14.00">λ</text>
<text text-anchor="middle" x="86" y="-261.75" font-family="Times,serif" font-size="14.00">~</text>
<text text-anchor="middle" x="86" y="-246.75" font-family="Times,serif" font-size="14.00">Deterministic</text>
</g>
<!-- λ0&#45;&gt;λ -->
<g id="edge1" class="edge">
<title>λ0&#45;&gt;λ</title>
<path fill="none" stroke="black" d="M67.84,-339.75C70.84,-327.62 74.2,-314.08 77.2,-301.97"/>
<polygon fill="black" stroke="black" points="80.61,-302.75 79.62,-292.2 73.82,-301.06 80.61,-302.75"/>
</g>
<!-- β -->
<g id="node2" class="node">
<title>β</title>
<ellipse fill="none" stroke="black" cx="162" cy="-376.43" rx="41.94" ry="37.45"/>
<text text-anchor="middle" x="162" y="-387.73" font-family="Times,serif" font-size="14.00">β</text>
<text text-anchor="middle" x="162" y="-372.73" font-family="Times,serif" font-size="14.00">~</text>
<text text-anchor="middle" x="162" y="-357.73" font-family="Times,serif" font-size="14.00">Normal</text>
</g>
<!-- β&#45;&gt;λ -->
<g id="edge2" class="edge">
<title>β&#45;&gt;λ</title>
<path fill="none" stroke="black" d="M140.22,-344.2C130.7,-330.56 119.52,-314.51 109.78,-300.56"/>
<polygon fill="black" stroke="black" points="112.53,-298.37 103.94,-292.17 106.79,-302.38 112.53,-298.37"/>
</g>
<!-- μ -->
<g id="node5" class="node">
<title>μ</title>
<polygon fill="none" stroke="black" points="132.5,-202.95 39.5,-202.95 39.5,-149.95 132.5,-149.95 132.5,-202.95"/>
<text text-anchor="middle" x="86" y="-187.75" font-family="Times,serif" font-size="14.00">μ</text>
<text text-anchor="middle" x="86" y="-172.75" font-family="Times,serif" font-size="14.00">~</text>
<text text-anchor="middle" x="86" y="-157.75" font-family="Times,serif" font-size="14.00">Deterministic</text>
</g>
<!-- λ&#45;&gt;μ -->
<g id="edge3" class="edge">
<title>λ&#45;&gt;μ</title>
<path fill="none" stroke="black" d="M86,-238.82C86,-230.84 86,-221.89 86,-213.34"/>
<polygon fill="black" stroke="black" points="89.5,-213.2 86,-203.2 82.5,-213.2 89.5,-213.2"/>
</g>
<!-- obs -->
<g id="node4" class="node">
<title>obs</title>
<ellipse fill="lightgrey" stroke="black" cx="86" cy="-76.48" rx="42.35" ry="37.45"/>
<text text-anchor="middle" x="86" y="-87.78" font-family="Times,serif" font-size="14.00">obs</text>
<text text-anchor="middle" x="86" y="-72.78" font-family="Times,serif" font-size="14.00">~</text>
<text text-anchor="middle" x="86" y="-57.78" font-family="Times,serif" font-size="14.00">Poisson</text>
</g>
<!-- μ&#45;&gt;obs -->
<g id="edge4" class="edge">
<title>μ&#45;&gt;obs</title>
<path fill="none" stroke="black" d="M86,-149.71C86,-141.89 86,-133.03 86,-124.27"/>
<polygon fill="black" stroke="black" points="89.5,-124.1 86,-114.1 82.5,-124.1 89.5,-124.1"/>
</g>
</g>
</svg>
