<?xml version="1.0" encoding="UTF-8" standalone="no"?>
<!DOCTYPE svg PUBLIC "-//W3C//DTD SVG 1.1//EN"
 "http://www.w3.org/Graphics/SVG/1.1/DTD/svg11.dtd">
<!-- Generated by graphviz version 2.42.3 (20191010.1750)
 -->
<!-- Title: %3 Pages: 1 -->
<svg width="293pt" height="544pt"
 viewBox="0.00 0.00 293.40 543.81" xmlns="http://www.w3.org/2000/svg" xmlns:xlink="http://www.w3.org/1999/xlink">
<g id="graph0" class="graph" transform="scale(1 1) rotate(0) translate(4 539.81)">
<title>%3</title>
<polygon fill="white" stroke="transparent" points="-4,4 -4,-539.81 289.4,-539.81 289.4,4 -4,4"/>
<g id="clust1" class="cluster">
<title>cluster18</title>
<path fill="none" stroke="black" d="M20,-8C20,-8 146,-8 146,-8 152,-8 158,-14 158,-20 158,-20 158,-309.91 158,-309.91 158,-315.91 152,-321.91 146,-321.91 146,-321.91 20,-321.91 20,-321.91 14,-321.91 8,-315.91 8,-309.91 8,-309.91 8,-20 8,-20 8,-14 14,-8 20,-8"/>
<text text-anchor="middle" x="142.5" y="-15.8" font-family="Times,serif" font-size="14.00">18</text>
</g>
<!-- θ -->
<g id="node1" class="node">
<title>θ</title>
<ellipse fill="none" stroke="black" cx="120" cy="-276.43" rx="29.9" ry="37.45"/>
<text text-anchor="middle" x="120" y="-287.73" font-family="Times,serif" font-size="14.00">θ</text>
<text text-anchor="middle" x="120" y="-272.73" font-family="Times,serif" font-size="14.00">~</text>
<text text-anchor="middle" x="120" y="-257.73" font-family="Times,serif" font-size="14.00">Beta</text>
</g>
<!-- y -->
<g id="node2" class="node">
<title>y</title>
<ellipse fill="lightgrey" stroke="black" cx="82" cy="-165.48" rx="48.58" ry="37.45"/>
<text text-anchor="middle" x="82" y="-176.78" font-family="Times,serif" font-size="14.00">y</text>
<text text-anchor="middle" x="82" y="-161.78" font-family="Times,serif" font-size="14.00">~</text>
<text text-anchor="middle" x="82" y="-146.78" font-family="Times,serif" font-size="14.00">Binomial</text>
</g>
<!-- θ&#45;&gt;y -->
<g id="edge5" class="edge">
<title>θ&#45;&gt;y</title>
<path fill="none" stroke="black" d="M108.29,-241.85C104.95,-232.28 101.26,-221.69 97.72,-211.56"/>
<polygon fill="black" stroke="black" points="101,-210.31 94.4,-202.02 94.39,-212.62 101,-210.31"/>
</g>
<!-- hits -->
<g id="node3" class="node">
<title>hits</title>
<path fill="lightgrey" stroke="black" d="M97,-92C97,-92 67,-92 67,-92 61,-92 55,-86 55,-80 55,-80 55,-51 55,-51 55,-45 61,-39 67,-39 67,-39 97,-39 97,-39 103,-39 109,-45 109,-51 109,-51 109,-80 109,-80 109,-86 103,-92 97,-92"/>
<text text-anchor="middle" x="82" y="-76.8" font-family="Times,serif" font-size="14.00">hits</text>
<text text-anchor="middle" x="82" y="-61.8" font-family="Times,serif" font-size="14.00">~</text>
<text text-anchor="middle" x="82" y="-46.8" font-family="Times,serif" font-size="14.00">Data</text>
</g>
<!-- y&#45;&gt;hits -->
<g id="edge1" class="edge">
<title>y&#45;&gt;hits</title>
<path fill="none" stroke="black" d="M82,-127.99C82,-119.58 82,-110.63 82,-102.25"/>
<polygon fill="black" stroke="black" points="85.5,-102.01 82,-92.01 78.5,-102.01 85.5,-102.01"/>
</g>
<!-- at_bats -->
<g id="node4" class="node">
<title>at_bats</title>
<path fill="lightgrey" stroke="black" d="M60,-302.93C60,-302.93 28,-302.93 28,-302.93 22,-302.93 16,-296.93 16,-290.93 16,-290.93 16,-261.93 16,-261.93 16,-255.93 22,-249.93 28,-249.93 28,-249.93 60,-249.93 60,-249.93 66,-249.93 72,-255.93 72,-261.93 72,-261.93 72,-290.93 72,-290.93 72,-296.93 66,-302.93 60,-302.93"/>
<text text-anchor="middle" x="44" y="-287.73" font-family="Times,serif" font-size="14.00">at_bats</text>
<text text-anchor="middle" x="44" y="-272.73" font-family="Times,serif" font-size="14.00">~</text>
<text text-anchor="middle" x="44" y="-257.73" font-family="Times,serif" font-size="14.00">Data</text>
</g>
<!-- at_bats&#45;&gt;y -->
<g id="edge6" class="edge">
<title>at_bats&#45;&gt;y</title>
<path fill="none" stroke="black" d="M52.91,-249.89C56.89,-238.46 61.72,-224.64 66.28,-211.56"/>
<polygon fill="black" stroke="black" points="69.71,-212.35 69.69,-201.76 63.1,-210.05 69.71,-212.35"/>
</g>
<!-- y_new -->
<g id="node5" class="node">
<title>y_new</title>
<ellipse fill="lightgrey" stroke="black" cx="222" cy="-165.48" rx="48.58" ry="37.45"/>
<text text-anchor="middle" x="222" y="-176.78" font-family="Times,serif" font-size="14.00">y_new</text>
<text text-anchor="middle" x="222" y="-161.78" font-family="Times,serif" font-size="14.00">~</text>
<text text-anchor="middle" x="222" y="-146.78" font-family="Times,serif" font-size="14.00">Binomial</text>
</g>
<!-- κ_log -->
<g id="node6" class="node">
<title>κ_log</title>
<ellipse fill="none" stroke="black" cx="226" cy="-498.34" rx="59.29" ry="37.45"/>
<text text-anchor="middle" x="226" y="-509.64" font-family="Times,serif" font-size="14.00">κ_log</text>
<text text-anchor="middle" x="226" y="-494.64" font-family="Times,serif" font-size="14.00">~</text>
<text text-anchor="middle" x="226" y="-479.64" font-family="Times,serif" font-size="14.00">Exponential</text>
</g>
<!-- κ -->
<g id="node9" class="node">
<title>κ</title>
<polygon fill="none" stroke="black" points="272.5,-413.88 179.5,-413.88 179.5,-360.88 272.5,-360.88 272.5,-413.88"/>
<text text-anchor="middle" x="226" y="-398.68" font-family="Times,serif" font-size="14.00">κ</text>
<text text-anchor="middle" x="226" y="-383.68" font-family="Times,serif" font-size="14.00">~</text>
<text text-anchor="middle" x="226" y="-368.68" font-family="Times,serif" font-size="14.00">Deterministic</text>
</g>
<!-- κ_log&#45;&gt;κ -->
<g id="edge2" class="edge">
<title>κ_log&#45;&gt;κ</title>
<path fill="none" stroke="black" d="M226,-460.75C226,-449.02 226,-436.03 226,-424.34"/>
<polygon fill="black" stroke="black" points="229.5,-424.04 226,-414.04 222.5,-424.04 229.5,-424.04"/>
</g>
<!-- θ_new -->
<g id="node7" class="node">
<title>θ_new</title>
<ellipse fill="none" stroke="black" cx="222" cy="-276.43" rx="38.78" ry="37.45"/>
<text text-anchor="middle" x="222" y="-287.73" font-family="Times,serif" font-size="14.00">θ_new</text>
<text text-anchor="middle" x="222" y="-272.73" font-family="Times,serif" font-size="14.00">~</text>
<text text-anchor="middle" x="222" y="-257.73" font-family="Times,serif" font-size="14.00">Beta</text>
</g>
<!-- θ_new&#45;&gt;y_new -->
<g id="edge9" class="edge">
<title>θ_new&#45;&gt;y_new</title>
<path fill="none" stroke="black" d="M222,-238.85C222,-230.67 222,-221.89 222,-213.37"/>
<polygon fill="black" stroke="black" points="225.5,-213.15 222,-203.15 218.5,-213.15 225.5,-213.15"/>
</g>
<!-- ϕ -->
<g id="node8" class="node">
<title>ϕ</title>
<ellipse fill="none" stroke="black" cx="116" cy="-387.38" rx="45.92" ry="37.45"/>
<text text-anchor="middle" x="116" y="-398.68" font-family="Times,serif" font-size="14.00">ϕ</text>
<text text-anchor="middle" x="116" y="-383.68" font-family="Times,serif" font-size="14.00">~</text>
<text text-anchor="middle" x="116" y="-368.68" font-family="Times,serif" font-size="14.00">Uniform</text>
</g>
<!-- ϕ&#45;&gt;θ -->
<g id="edge3" class="edge">
<title>ϕ&#45;&gt;θ</title>
<path fill="none" stroke="black" d="M117.34,-349.8C117.64,-341.63 117.97,-332.85 118.28,-324.32"/>
<polygon fill="black" stroke="black" points="121.78,-324.22 118.65,-314.1 114.79,-323.97 121.78,-324.22"/>
</g>
<!-- ϕ&#45;&gt;θ_new -->
<g id="edge7" class="edge">
<title>ϕ&#45;&gt;θ_new</title>
<path fill="none" stroke="black" d="M144.13,-357.47C157.71,-343.51 174.1,-326.66 188.34,-312.02"/>
<polygon fill="black" stroke="black" points="191.1,-314.21 195.57,-304.6 186.08,-309.33 191.1,-314.21"/>
</g>
<!-- κ&#45;&gt;θ -->
<g id="edge4" class="edge">
<title>κ&#45;&gt;θ</title>
<path fill="none" stroke="black" d="M201.15,-360.84C185.86,-345.13 166.18,-324.9 150.03,-308.3"/>
<polygon fill="black" stroke="black" points="152.37,-305.68 142.89,-300.95 147.35,-310.56 152.37,-305.68"/>
</g>
<!-- κ&#45;&gt;θ_new -->
<g id="edge8" class="edge">
<title>κ&#45;&gt;θ_new</title>
<path fill="none" stroke="black" d="M225.06,-360.84C224.66,-349.93 224.18,-336.84 223.72,-324.3"/>
<polygon fill="black" stroke="black" points="227.21,-323.82 223.34,-313.95 220.21,-324.08 227.21,-323.82"/>
</g>
</g>
</svg>
