<?xml version="1.0" encoding="UTF-8" standalone="no"?>
<!DOCTYPE svg PUBLIC "-//W3C//DTD SVG 1.1//EN"
 "http://www.w3.org/Graphics/SVG/1.1/DTD/svg11.dtd">
<!-- Generated by graphviz version 2.42.3 (20191010.1750)
 -->
<!-- Title: %3 Pages: 1 -->
<svg width="230pt" height="296pt"
 viewBox="0.00 0.00 230.00 295.91" xmlns="http://www.w3.org/2000/svg" xmlns:xlink="http://www.w3.org/1999/xlink">
<g id="graph0" class="graph" transform="scale(1 1) rotate(0) translate(4 291.91)">
<title>%3</title>
<polygon fill="white" stroke="transparent" points="-4,4 -4,-291.91 226,-291.91 226,4 -4,4"/>
<g id="clust1" class="cluster">
<title>cluster100</title>
<path fill="none" stroke="black" d="M20,-165.95C20,-165.95 202,-165.95 202,-165.95 208,-165.95 214,-171.95 214,-177.95 214,-177.95 214,-267.91 214,-267.91 214,-273.91 208,-279.91 202,-279.91 202,-279.91 20,-279.91 20,-279.91 14,-279.91 8,-273.91 8,-267.91 8,-267.91 8,-177.95 8,-177.95 8,-171.95 14,-165.95 20,-165.95"/>
<text text-anchor="middle" x="195" y="-173.75" font-family="Times,serif" font-size="14.00">100</text>
</g>
<g id="clust2" class="cluster">
<title>cluster500 x 100</title>
<path fill="none" stroke="black" d="M53,-44C53,-44 149,-44 149,-44 155,-44 161,-50 161,-56 161,-56 161,-145.95 161,-145.95 161,-151.95 155,-157.95 149,-157.95 149,-157.95 53,-157.95 53,-157.95 47,-157.95 41,-151.95 41,-145.95 41,-145.95 41,-56 41,-56 41,-50 47,-44 53,-44"/>
<text text-anchor="middle" x="124.5" y="-51.8" font-family="Times,serif" font-size="14.00">500 x 100</text>
</g>
<!-- sd -->
<g id="node1" class="node">
<title>sd</title>
<ellipse fill="none" stroke="black" cx="147" cy="-234.43" rx="59.29" ry="37.45"/>
<text text-anchor="middle" x="147" y="-245.73" font-family="Times,serif" font-size="14.00">sd</text>
<text text-anchor="middle" x="147" y="-230.73" font-family="Times,serif" font-size="14.00">~</text>
<text text-anchor="middle" x="147" y="-215.73" font-family="Times,serif" font-size="14.00">HalfNormal</text>
</g>
<!-- likelihood -->
<g id="node3" class="node">
<title>likelihood</title>
<ellipse fill="lightgrey" stroke="black" cx="101" cy="-112.48" rx="51.74" ry="37.45"/>
<text text-anchor="middle" x="101" y="-123.78" font-family="Times,serif" font-size="14.00">likelihood</text>
<text text-anchor="middle" x="101" y="-108.78" font-family="Times,serif" font-size="14.00">~</text>
<text text-anchor="middle" x="101" y="-93.78" font-family="Times,serif" font-size="14.00">Normal</text>
</g>
<!-- sd&#45;&gt;likelihood -->
<g id="edge1" class="edge">
<title>sd&#45;&gt;likelihood</title>
<path fill="none" stroke="black" d="M133.32,-197.76C128.6,-185.44 123.24,-171.46 118.26,-158.48"/>
<polygon fill="black" stroke="black" points="121.39,-156.88 114.54,-148.8 114.86,-159.39 121.39,-156.88"/>
</g>
<!-- mu -->
<g id="node2" class="node">
<title>mu</title>
<ellipse fill="none" stroke="black" cx="43" cy="-234.43" rx="27" ry="37.45"/>
<text text-anchor="middle" x="43" y="-245.73" font-family="Times,serif" font-size="14.00">mu</text>
<text text-anchor="middle" x="43" y="-230.73" font-family="Times,serif" font-size="14.00">~</text>
<text text-anchor="middle" x="43" y="-215.73" font-family="Times,serif" font-size="14.00">Flat</text>
</g>
<!-- mu&#45;&gt;likelihood -->
<g id="edge2" class="edge">
<title>mu&#45;&gt;likelihood</title>
<path fill="none" stroke="black" d="M57.79,-202.85C64.46,-189.05 72.46,-172.5 79.76,-157.41"/>
<polygon fill="black" stroke="black" points="82.99,-158.77 84.19,-148.24 76.69,-155.72 82.99,-158.77"/>
</g>
<!-- Minibatch -->
<g id="node4" class="node">
<title>Minibatch</title>
<ellipse fill="none" stroke="black" cx="101" cy="-18" rx="48.19" ry="18"/>
<text text-anchor="middle" x="101" y="-14.3" font-family="Times,serif" font-size="14.00">Minibatch</text>
</g>
<!-- likelihood&#45;&gt;Minibatch -->
<g id="edge3" class="edge">
<title>likelihood&#45;&gt;Minibatch</title>
<path fill="none" stroke="black" d="M101,-74.93C101,-65.45 101,-55.41 101,-46.49"/>
<polygon fill="black" stroke="black" points="104.5,-46.27 101,-36.27 97.5,-46.27 104.5,-46.27"/>
</g>
</g>
</svg>
