<?xml version="1.0" encoding="UTF-8" standalone="no"?>
<!DOCTYPE svg PUBLIC "-//W3C//DTD SVG 1.1//EN"
 "http://www.w3.org/Graphics/SVG/1.1/DTD/svg11.dtd">
<!-- Generated by graphviz version 2.42.3 (20191010.1750)
 -->
<!-- Title: %3 Pages: 1 -->
<svg width="202pt" height="260pt"
 viewBox="0.00 0.00 202.00 259.91" xmlns="http://www.w3.org/2000/svg" xmlns:xlink="http://www.w3.org/1999/xlink">
<g id="graph0" class="graph" transform="scale(1 1) rotate(0) translate(4 255.91)">
<title>%3</title>
<polygon fill="white" stroke="transparent" points="-4,4 -4,-255.91 198,-255.91 198,4 -4,4"/>
<g id="clust1" class="cluster">
<title>cluster4 x 3</title>
<path fill="none" stroke="black" d="M20,-129.95C20,-129.95 96,-129.95 96,-129.95 102,-129.95 108,-135.95 108,-141.95 108,-141.95 108,-231.91 108,-231.91 108,-237.91 102,-243.91 96,-243.91 96,-243.91 20,-243.91 20,-243.91 14,-243.91 8,-237.91 8,-231.91 8,-231.91 8,-141.95 8,-141.95 8,-135.95 14,-129.95 20,-129.95"/>
<text text-anchor="middle" x="85.5" y="-137.75" font-family="Times,serif" font-size="14.00">4 x 3</text>
</g>
<g id="clust2" class="cluster">
<title>cluster3</title>
<path fill="none" stroke="black" d="M128,-129.95C128,-129.95 174,-129.95 174,-129.95 180,-129.95 186,-135.95 186,-141.95 186,-141.95 186,-231.91 186,-231.91 186,-237.91 180,-243.91 174,-243.91 174,-243.91 128,-243.91 128,-243.91 122,-243.91 116,-237.91 116,-231.91 116,-231.91 116,-141.95 116,-141.95 116,-135.95 122,-129.95 128,-129.95"/>
<text text-anchor="middle" x="174" y="-137.75" font-family="Times,serif" font-size="14.00">3</text>
</g>
<g id="clust3" class="cluster">
<title>cluster112</title>
<path fill="none" stroke="black" d="M40,-8C40,-8 146,-8 146,-8 152,-8 158,-14 158,-20 158,-20 158,-109.95 158,-109.95 158,-115.95 152,-121.95 146,-121.95 146,-121.95 40,-121.95 40,-121.95 34,-121.95 28,-115.95 28,-109.95 28,-109.95 28,-20 28,-20 28,-14 34,-8 40,-8"/>
<text text-anchor="middle" x="139" y="-15.8" font-family="Times,serif" font-size="14.00">112</text>
</g>
<!-- β -->
<g id="node1" class="node">
<title>β</title>
<ellipse fill="none" stroke="black" cx="58" cy="-198.43" rx="41.94" ry="37.45"/>
<text text-anchor="middle" x="58" y="-209.73" font-family="Times,serif" font-size="14.00">β</text>
<text text-anchor="middle" x="58" y="-194.73" font-family="Times,serif" font-size="14.00">~</text>
<text text-anchor="middle" x="58" y="-179.73" font-family="Times,serif" font-size="14.00">Normal</text>
</g>
<!-- obs -->
<g id="node3" class="node">
<title>obs</title>
<ellipse fill="lightgrey" stroke="black" cx="93" cy="-76.48" rx="57.05" ry="37.45"/>
<text text-anchor="middle" x="93" y="-87.78" font-family="Times,serif" font-size="14.00">obs</text>
<text text-anchor="middle" x="93" y="-72.78" font-family="Times,serif" font-size="14.00">~</text>
<text text-anchor="middle" x="93" y="-57.78" font-family="Times,serif" font-size="14.00">Categorical</text>
</g>
<!-- β&#45;&gt;obs -->
<g id="edge1" class="edge">
<title>β&#45;&gt;obs</title>
<path fill="none" stroke="black" d="M68.31,-162.09C71.88,-149.86 75.93,-135.98 79.7,-123.05"/>
<polygon fill="black" stroke="black" points="83.08,-123.98 82.52,-113.4 76.36,-122.01 83.08,-123.98"/>
</g>
<!-- a -->
<g id="node2" class="node">
<title>a</title>
<ellipse fill="none" stroke="black" cx="151" cy="-198.43" rx="27" ry="37.45"/>
<text text-anchor="middle" x="151" y="-209.73" font-family="Times,serif" font-size="14.00">a</text>
<text text-anchor="middle" x="151" y="-194.73" font-family="Times,serif" font-size="14.00">~</text>
<text text-anchor="middle" x="151" y="-179.73" font-family="Times,serif" font-size="14.00">Flat</text>
</g>
<!-- a&#45;&gt;obs -->
<g id="edge2" class="edge">
<title>a&#45;&gt;obs</title>
<path fill="none" stroke="black" d="M136.21,-166.85C129.6,-153.17 121.67,-136.78 114.43,-121.79"/>
<polygon fill="black" stroke="black" points="117.52,-120.15 110.02,-112.68 111.22,-123.2 117.52,-120.15"/>
</g>
</g>
</svg>
